<?xml version="1.0" encoding="UTF-8"?>
<svg id="Layer_1" data-name="Layer 1" xmlns="http://www.w3.org/2000/svg" viewBox="0 0 1080 1350">
  <defs>
    <style>
      .cls-1 {
        fill: #fff;
      }

      .cls-2 {
        fill: #231f20;
      }
    </style>
  </defs>
  <path class="cls-1" d="M1036.01,1000.73v1.53h-12.59v-1.53h-12.59v1.53h-12.59v-1.53h-12.59v1.53h-12.59v-1.53h-12.59v1.53h-12.59v-1.53h-12.59v1.53h-12.59v-1.53h-12.58v1.53h-12.59v-3.06h3.82v-13.94c-4.1,2.5-8.87,3.9-13.87,3.9-1.43,0-2.88-.11-4.33-.35-7.07-1.15-13.27-4.99-17.45-10.8-4.19-5.81-5.86-12.91-4.7-19.98l.7-4.27-201.95-3.29v5.8c0,2-.22,3.95-.65,5.83v37.1h-.71v3.06h-12.59v-1.53h-12.58v1.53h-12.59v-1.53h-12.59v1.53h-12.59v-1.53h-12.59v1.53h-12.59v-1.53h-12.59v1.53h-12.59v-1.53h-12.59v1.53h-12.59v-1.53h-12.59v1.53h-12.59v-1.53h-12.59v1.53h-12.59v-1.53h-12.59v1.53h-12.59v-1.53h-12.59v1.53h-12.59v-1.53h-6.1v-70.12c-.51-2.05-.78-4.19-.78-6.4v-253.05c0-2.2.27-4.34.78-6.39v-23.02c0-34.89-25.27-64-58.48-69.96-12.31,25.07-38.38,40.44-68.57,40.44-.54,0-1.09-.01-1.63-.02-28.85-.53-53.15-15.12-63.89-38.25-28.77,9.11-49.67,36.06-49.67,67.79v24.43c.19.81.35,1.63.47,2.46l28.2,196.28h-2.23v3.05h-12.73v-3.05h11.88l-6.5-45.22-19.09,2.74-3.06.44-24.89,3.57,5.53,38.47h-2.07v3.05h-12.74v-1.53h-12.73v1.53h-12.73v-1.53h-12.74v1.53h-.52v9.15h-1.96v12.74h1.96v12.73h-1.96v12.74h1.96v12.73h-1.96v12.73h1.96v12.74h-1.96v12.73h1.96v12.74h-1.96v12.73h1.96v12.73h-3.06v-3.73h-12.49v1.53h-12.59v-1.53h-12.59v1.53h-12.59v-1.53h-12.59v1.53h-1.47l-5.57,7.87-2.46-1.78,6.32-7.1L.06,1038.42v311.59h1079.94v-322.74l-20.84-26.53h-23.15ZM12.26,1018.7l2.46,1.78-7.33,10.35-2.46-1.78,7.33-10.35ZM19.43,1089.96H6.84v-3.06h12.59v3.06ZM44.6,1089.96h-12.59v-3.06h12.59v3.06ZM69.78,1089.96h-12.59v-3.06h12.59v3.06ZM368.93,999.2h12.59v3.06h-12.59v-3.06ZM396.16,1023.66l-4.46,3.09-.42-.61v.58h-12.2v-3.06h17.08ZM356.35,999.2v3.06h-5.83v-3.06h5.83ZM366.35,1023.66v3.06h-12.74v-3.06h12.74ZM347.46,1045.92v-12.74h3.06v12.86h-3.06v-.12ZM347.46,1020.45v-12.73h3.06v12.73h-3.06ZM348.99,905.84h1.53v12.74h-3.06v-12.74h1.53ZM347.46,893.11v-12.73h3.06v12.73h-3.06ZM348.99,931.31h1.53v12.74h-3.06v-12.74h1.53ZM348.99,956.78h1.53v12.73h-3.06v-12.73h1.53ZM348.99,982.25h1.53v12.73h-3.06v-12.73h1.53ZM337.46,864.92h13.06v2.72h-1.53v.33h-11.53v-3.05ZM311.99,864.92h12.73v3.05h-12.73v-3.05ZM286.52,864.92h12.74v3.05h-12.74v-3.05ZM261.05,864.92h12.74v3.05h-12.74v-3.05ZM235.59,864.92h12.73v3.05h-12.73v-3.05ZM210.12,864.92h12.73v3.05h-12.73v-3.05ZM159.18,864.92h12.74v3.05h-12.74v-3.05ZM94.95,1089.96h-12.59v-3.06h12.59v3.06ZM94.99,1054.55h-.68v1.52h-2.38v-13.4h3.06v11.88ZM94.99,1029.93h-3.06v-12.73h3.06v12.73ZM107.05,1053.02h12.73v3.05h-12.73v-3.05ZM120.12,1089.96h-12.59v-3.06h12.59v3.06ZM132.52,1053.02h12.73v3.05h-12.73v-3.05ZM145.29,1089.96h-12.59v-3.06h12.59v3.06ZM170.47,1089.96h-12.59v-3.06h12.59v3.06ZM170.72,1056.07h-12.74v-3.05h12.74v3.05ZM195.64,1089.96h-12.59v-3.06h12.59v3.06ZM196.19,1056.07h-12.74v-3.05h12.74v3.05ZM220.81,1089.96h-12.59v-3.06h12.59v3.06ZM221.65,1056.07h-12.73v-3.05h12.73v3.05ZM245.99,1089.96h-12.59v-3.06h12.59v3.06ZM247.12,1056.07h-12.73v-3.05h12.73v3.05ZM271.16,1089.96h-12.59v-3.06h12.59v3.06ZM272.59,1056.07h-12.73v-3.05h12.73v3.05ZM296.33,1089.96h-12.59v-3.06h12.59v3.06ZM298.06,1056.07h-12.74v-3.05h12.74v3.05ZM321.5,1089.96h-12.59v-3.06h12.59v3.06ZM323.52,1056.07h-12.73v-3.05h12.73v3.05ZM346.68,1089.96h-12.59v-3.06h12.59v3.06ZM348.99,1054.55v1.52h-12.73v-3.05h12.25l1.74-1.21,8.33-5.78,1.75,2.51-10.47,7.26-.87-1.25ZM371.85,1089.96h-12.59v-3.06h12.59v3.06ZM370.79,1041.28l-1.75-2.51,10.46-7.26,1.75,2.51-10.46,7.26ZM397.02,1089.96h-12.59v-3.06h12.59v3.06ZM406.69,1002.26h-12.58v-3.06h12.58v3.06ZM422.2,1089.96h-12.59v-3.06h12.59v3.06ZM447.37,1089.96h-12.59v-3.06h12.59v3.06ZM472.54,1089.96h-12.59v-3.06h12.59v3.06ZM497.71,1089.96h-12.59v-3.06h12.59v3.06ZM522.89,1089.96h-12.59v-3.06h12.59v3.06ZM548.06,1089.96h-12.59v-3.06h12.59v3.06ZM573.23,1089.96h-12.59v-3.06h12.59v3.06ZM598.41,1089.96h-12.59v-3.06h12.59v3.06ZM623.58,1089.96h-12.59v-3.06h12.59v3.06ZM648.75,1089.96h-12.59v-3.06h12.59v3.06ZM929.29,1028.24l8.92,9.1-1.82,1.78-8.91-9.09,1.81-1.79ZM924.97,1047.82v2.55h-12.73v-2.55h12.73ZM907.86,1016.1h9.52l3,3.05-1.82,1.78-2.25-2.29h-8.45v-2.54ZM899.5,1047.82v2.55h-12.73v-2.55h12.73ZM882.39,1018.64v-2.54h12.74v2.54h-12.74ZM872.39,999.2h12.59v3.06h-12.59v-3.06ZM861.3,1047.82h12.74v2.55h-12.74v-2.55ZM856.92,1018.64v-2.54h12.74v2.54h-12.74ZM847.22,999.2h12.58v3.06h-12.58v-3.06ZM835.84,1047.82h12.73v2.55h-12.73v-2.55ZM831.46,1018.64v-2.54h12.73v2.54h-12.73ZM822.04,999.2h12.59v3.06h-12.59v-3.06ZM810.37,1047.82h12.73v2.55h-12.73v-2.55ZM805.99,1018.64v-2.54h12.73v2.54h-12.73ZM796.87,999.2h12.59v3.06h-12.59v-3.06ZM784.9,1047.82h12.73v2.55h-12.73v-2.55ZM780.52,1018.64v-2.54h12.73v2.54h-12.73ZM771.7,999.2h12.58v3.06h-12.58v-3.06ZM759.43,1047.82h12.74v2.55h-12.74v-2.55ZM755.05,1018.64v-2.54h12.74v2.54h-12.74ZM746.52,999.2h12.59v3.06h-12.59v-3.06ZM733.96,1047.82h12.74v2.55h-12.74v-2.55ZM729.58,1018.64v-2.54h12.74v2.54h-12.74ZM721.35,999.2h12.59v3.06h-12.59v-3.06ZM708.5,1047.82h12.73v2.55h-12.73v-2.55ZM704.12,1018.64v-2.54h12.73v2.54h-12.73ZM696.18,999.2h12.59v3.06h-12.59v-3.06ZM685.76,1045.9l.99-.24.22.92c.8.43,1.62.85,2.44,1.24h6.35v2.55h-10.5l-.24-.98-.11-.47-.16-.66-.48-2.01,1.49-.35ZM678.65,1018.64v-2.54h12.73v2.54h-12.73ZM671.01,999.2h12.58v3.06h-12.58v-3.06ZM673.92,1089.96h-12.59v-3.06h12.59v3.06ZM675.78,1036.67l1.05-12.69,2.14.18-.16-.66-.48-2.01,2.47-.6.48,2.01h.01l2.48,10.37.49,2.02-2.48.59-.48-2.01-2.03-8.46-.95,11.47-2.54-.21ZM683.55,1061.23l-4.53-11.9,2.38-.91,4.53,11.9-2.38.91ZM699.1,1089.96h-12.59v-3.06h12.59v3.06ZM709.24,1063.44h-12.73v-2.54h12.73v2.54ZM724.27,1089.96h-12.59v-3.06h12.59v3.06ZM734.71,1063.44h-12.73v-2.54h12.73v2.54ZM749.44,1089.96h-12.59v-3.06h12.59v3.06ZM760.18,1063.44h-12.74v-2.54h12.74v2.54ZM774.62,1089.96h-12.59v-3.06h12.59v3.06ZM785.65,1063.44h-12.74v-2.54h12.74v2.54ZM799.79,1089.96h-12.59v-3.06h12.59v3.06ZM811.11,1063.44h-12.73v-2.54h12.73v2.54ZM824.96,1089.96h-12.59v-3.06h12.59v3.06ZM836.58,1063.44h-12.73v-2.54h12.73v2.54ZM850.13,1089.96h-12.59v-3.06h12.59v3.06ZM862.05,1063.44h-12.73v-2.54h12.73v2.54ZM875.31,1089.96h-12.59v-3.06h12.59v3.06ZM887.52,1063.44h-12.74v-2.54h12.74v2.54ZM900.48,1089.96h-12.59v-3.06h12.59v3.06ZM912.98,1063.44h-12.73v-2.54h12.73v2.54ZM925.65,1089.96h-12.59v-3.06h12.59v3.06ZM925.72,1060.9h12.73v2.54h-12.73v-2.54ZM950.82,1089.96h-12.59v-3.06h12.59v3.06ZM952.12,1061.83h-2.54v-11.46h-11.87v-2.55h7.99l1.42-1.39,2.62,2.67h2.38v12.73ZM976,1089.96h-12.59v-3.06h12.59v3.06ZM1001.17,1089.96h-12.59v-3.06h12.59v3.06ZM1026.34,1089.96h-12.59v-3.06h12.59v3.06ZM1051.52,1089.96h-12.59v-3.06h12.59v3.06ZM777.19,656.88c-31.79,0-60.69-12.63-81.93-33.15,1.59-7.61,2.47-16.22,2.47-25.4,0-15.78-2.61-29.88-6.89-40.12.81-2.4,1.24-4.97,1.24-7.64,0-5.65-1.93-10.85-5.17-14.98,6.48-4.39,10.74-11.81,10.74-20.2,0-7.48-3.4-14.19-8.73-18.67,12.17-1.34,21.66-11.69,21.66-24.21,0-4.12-1.03-8.01-2.84-11.42,1.33-2.5,2.24-5.27,2.62-8.19,4.29,3.74,9.89,6.01,16.01,6.01,9.24,0,17.29-5.17,21.43-12.76,4.13,7.59,12.18,12.76,21.42,12.76.1,0,.19,0,.29,0,3.64,8.87,12.38,15.14,22.55,15.14,3,0,5.88-.54,8.54-1.55,4.46,5.64,11.36,9.26,19.1,9.26.97,0,1.93-.06,2.87-.18,2.88,7.19,9.1,12.69,16.73,14.58,3.89,8.29,12.32,14.04,22.07,14.04,5.21,0,10.05-1.64,14.01-4.44.54.84,1.12,1.64,1.76,2.4-2.04,3.56-3.2,7.68-3.2,12.07,0,9.85,5.87,18.35,14.3,22.19-.25,1.03-.46,2.08-.62,3.14-4.73,2.92-8.86,8.99-11.97,17.25-4.17,5.63-6.64,12.6-6.64,20.14,0,2.77.33,5.46.97,8.04-.23,3.16-.35,6.42-.35,9.76,0,3.74.15,7.38.43,10.9-21.63,27.53-55.22,45.24-92.87,45.24ZM391.33,466.37l-.89-.72-18.69-67.52-9.22-13.07-17.59,27.71-13.66-32.06-13.03,41.4-56.33-63.99-25.59,40.3-11.65-24.81c-9.26,9.05-18.96,18.87-19.84,20.39-1.06,4.3-10.39,33.59-19.23,61.12v46.53c0,1.07-.21,2.09-.59,3.03,20.08,36.55,58.96,61.37,103.53,61.37s83.32-24.74,103.43-61.19c-.42-.97-.65-2.04-.65-3.16v-35.33ZM326.42,512.16l-37.87-6.03-37.6,6.04v-1.8c0-12.69,9.91-21.56,24.11-21.56h27.24c14.2,0,24.12,8.87,24.12,21.56v1.79ZM675.98,339.44l.06-1.84.06-1.77,4.31-138.69c11.54-.32,21.28-8.43,23.93-19.37l32.22,97.22,29.43.92,3.29-105.79,35.7,1.11-3.29,105.79,42.79,1.33,27.7-96.01c.75,5.06,3.02,9.77,6.61,13.58,4.29,4.57,10,7.34,16.19,7.89l-5.04,161.95-.13,4.32h0s-.32,10.31-.32,10.31l-.03.98c-.09-.08-.18-.16-.28-.24.07.39.15.77.25,1.15v.3s-.93-.03-.93-.03l-.58-.02s-.02-.07-.02-.11c.04-.08.1-.16.17-.24-.09-.08-.19-.15-.28-.22.03.15.06.31.11.46-.04.04-.07.07-.08.11l-1.89-.06-23.92-.74-2.55-.08-2.29-.07-3.35-.11c-3.3-2.01-7.11-3.26-11.19-3.5-.75-12.44-10.87-22.39-23.37-22.87-4.46-5.72-11.42-9.41-19.22-9.41-12.24,0-22.4,9.06-24.12,20.83-3.95-2.77-8.76-4.39-13.94-4.39-4.04,0-7.85.99-11.21,2.73-4.19-7.38-12.12-12.36-21.19-12.36-5.53,0-10.63,1.85-14.72,4.97-4.05-3.09-9.1-4.93-14.56-4.97-3.97-4.47-9.56-7.48-15.84-8.09-.61-.06-1.22-.1-1.84-.11h-.01c-.18-.01-.36-.01-.54-.01-.44,0-.87.01-1.3.03-1.71.09-3.37.36-4.96.79l.17-5.67ZM679.66,149.44c.23,0,.47,0,.7.01,5.96.19,11.5,2.68,15.58,7.03,2.31,2.46,4,5.34,4.99,8.46.17.5.31,1.01.44,1.53.33,1.36.53,2.75.61,4.17.01.38.02.75.02,1.13,0,.24,0,.47-.01.7-.36,11.79-9.82,21.17-21.49,21.61-.5.02-1.02.02-1.53,0-.51-.02-1.02-.05-1.52-.11-5.38-.51-10.32-2.94-14.06-6.91-4.08-4.35-6.23-10.03-6.04-15.99.37-12.08,10.31-21.64,22.31-21.64ZM875.54,173.42c.12-.51.26-1.02.42-1.52.15-.51.33-1.01.52-1.51,1.2-3.05,3.06-5.82,5.52-8.13,4.17-3.92,9.57-6.06,15.27-6.06.24,0,.47.01.71.01,5.96.19,11.5,2.69,15.58,7.03,4.09,4.35,6.24,10.03,6.05,15.99-.18,5.96-2.68,11.5-7.03,15.58-3.97,3.73-9.06,5.85-14.45,6.04-.51.03-1.02.03-1.54.01-.51-.02-1.02-.05-1.52-.1-5.38-.53-10.32-2.95-14.06-6.93-4.08-4.35-6.23-10.03-6.04-15.99.05-1.51.24-2.99.57-4.42ZM795.77,107.46l-8.87-.28.76-24.52,8.87.28-.76,24.52ZM783.47,119.01l-30.48-.95.27-8.87,30.49.95,1.52.04,1.53.05,8.87.28,1.53.05,1.53.04,30.48.95-.28,8.87-30.48-.95-1.53-.04-1.52-.05-8.87-.28-1.53-.05-1.53-.04ZM786.43,122.16l8.87.27-1.13,36.45-8.87-.27,1.13-36.45ZM901.38,729.39l3.01-18.49.35-2.13c1.89-11.64,12-19.94,23.43-19.94,1.27,0,2.55.1,3.83.31,12.94,2.11,21.74,14.34,19.63,27.27l-4.39,26.92-42.8-11.74v-.13l-1.17-.29c-.62-.15-1.25-.31-1.89-.46-.07-.02-.14-.04-.21-.05l.21-1.27ZM904.44,781.22l35.47,7.16-28.97,177.79c-.8,4.91-3.07,9.35-6.5,12.82-.93.95-1.96,1.83-3.06,2.63,0,.01-.01.01-.01.01-5.15,3.71-11.44,5.19-17.7,4.17-12.93-2.11-21.73-14.34-19.63-27.27l.77-4.72.5-3.06,27.99-171.78,8.08,1.64,3.06.61ZM904.44,734.76l42.31,11.6-6.35,39-35.96-7.26-3.06-.62-7.59-1.53,6.88-42.22.71.19,3.06.84ZM898.19,729.92c-61.71-15.14-202.33-49.88-222.04-55.75,9.5-8.82,22.22-14.23,36.17-14.23h135.87c28.52,0,51.88,22.57,53.13,50.78l-3.13,19.2ZM897.7,732.95l-35.48,217.75-202.44-3.28v-239.76l14.3-30.96c18.62,5.86,191.44,48.35,223.62,56.25ZM656.08,725.64h-46.87v-22.42c0-13.1,10.65-23.76,23.75-23.76s23.76,10.66,23.76,23.76v1.41c-.16,1.07-.3,2.15-.39,3.24l-.25.53v17.24ZM656.08,950.41v11.32c-2.47,10.48-11.9,18.29-23.12,18.29-13.1,0-23.75-10.65-23.75-23.75v-227.57h46.87v221.71ZM416.24,823.33h46.74v100.88c0,13.1-10.66,23.76-23.76,23.76-11.01,0-20.3-7.53-22.98-17.72v-106.92ZM416.24,820.28v-155.16c2.68-10.18,11.97-17.71,22.98-17.71,13.1,0,23.76,10.65,23.76,23.75v149.12h-46.74ZM223.58,573.1c5.88-1.59,12.06-2.43,18.44-2.43h100.08c3.19,0,6.34.21,9.42.62-12.17,23.94-37.61,38.37-66.97,37.87-27.48-.5-50.62-14.26-60.97-36.06ZM142.56,823.42l-21.21-147.59c-.9-6.28.7-12.54,4.5-17.62,3.8-5.08,9.36-8.37,15.64-9.28,1.14-.16,2.27-.24,3.39-.24,10.78,0,20.32,7.36,23,17.86.22.82.39,1.66.51,2.52l2.55,17.75,18.66,129.85-18.66,2.68-3.06.43-25.32,3.64ZM887.26,549.59c-.01.32-.01.65-.01.98,0,.76.03,1.52.08,2.27-1.83.94-3.56,2.05-5.17,3.31,1.56-2.73,3.28-4.95,5.1-6.56ZM690.74,619.12c1.01-1.03,1.93-2.16,2.74-3.36-.25,1.82-.54,3.6-.87,5.33-.65-.65-1.27-1.31-1.87-1.97ZM689.07,562.3c2.75,7.66,4.66,17.24,5.34,27.72-3.19-5.54-8.5-9.71-14.8-11.4.38-1.68.57-3.42.57-5.21,0-.63-.02-1.25-.08-1.86,3.75-2.23,6.86-5.43,8.97-9.25ZM875.94,603.45c-.97,1.5-1.99,2.97-3.05,4.42-.13-2.34-.2-4.72-.2-7.13,0-.8.01-1.6.03-2.39.92,1.8,2,3.5,3.22,5.1ZM183.83,506.67s.01-.01.01-.02t.01-.02s0-.01,0-.02c.01-.01.02-.02.02-.03.48-.56.85-1.22,1.14-1.9.38-.94.59-1.96.59-3.03v-109.37c0-.59-.06-1.16-.18-1.71-.28-1.24-.84-2.38-1.61-3.33t-.01-.02c-.36-.43-.74-.81-1.17-1.16h-.01c-.64-.53-1.37-.95-2.16-1.26-.49-.19-1-.33-1.53-.42-.44-.07-.89-.11-1.34-.11h-.17c-1.84.04-3.53.7-4.86,1.78h-.01s0,.02-.01.02c-.43.34-.81.73-1.15,1.15,0,0,0,0-.01.01-.09.11-.18.23-.27.35-.14.2-.28.4-.4.62-.71,1.19-1.12,2.58-1.12,4.07v109.37c0,1.51.42,2.92,1.14,4.12.12.2.25.39.38.57.07.09.14.19.23.28h.01s0,.02,0,.03t.01.02s0,0,0,0c.34.44.73.83,1.17,1.18,0,0,.01.01.02.02h.01c1.37,1.11,3.12,1.78,5.02,1.78s3.65-.67,5.02-1.77h.01s.01-.02.02-.03c.15-.12.29-.25.43-.38.27-.25.52-.52.75-.81ZM177.6,506.6c-2.73,0-4.95-2.22-4.95-4.95v-109.37c0-2.65,2.09-4.82,4.71-4.94.08,0,.16,0,.24,0,.44,0,.87.06,1.27.17.55.14,1.06.38,1.52.7.75.5,1.34,1.21,1.71,2.04.29.62.45,1.31.45,2.04v109.37c0,1.12-.38,2.17-1.02,3-.9,1.19-2.33,1.95-3.93,1.95ZM398.87,384.33c-.52.03-1.03.11-1.52.24-1.12.29-2.14.81-3.01,1.51h0c-.4.32-.76.67-1.09,1.06-.04.06-.09.12-.14.18h-.01c-.71.89-1.23,1.92-1.52,3.06-.16.62-.24,1.28-.24,1.95v109.37c0,1.12.23,2.19.65,3.16.29.68.67,1.29,1.12,1.85h.01c.25.33.53.62.83.9.12.11.24.21.37.31,0,0,0,0,0,0t.02.01l.02.02c1.37,1.1,3.1,1.75,4.98,1.75s3.64-.67,5.01-1.77h.01s.01-.02.02-.03c.44-.37.84-.75,1.18-1.19h0s0,0,0,0c.09-.11.17-.21.25-.32.13-.19.26-.38.38-.58.72-1.2,1.14-2.61,1.14-4.11v-109.37c0-1.4-.36-2.71-.99-3.85-.04-.07-.08-.14-.12-.21-.13-.22-.27-.43-.41-.63-.08-.11-.16-.21-.24-.31h-.01s0-.01,0-.01c-.35-.45-.75-.85-1.2-1.21,0,0-.01-.01-.02-.02h-.01c-1.11-.9-2.46-1.5-3.94-1.7-.35-.05-.7-.07-1.06-.07-.16,0-.32,0-.47.01ZM394.39,501.7v-109.37c0-.8.19-1.55.53-2.22.54-1.07,1.45-1.92,2.57-2.37.47-.19.98-.31,1.52-.34.11-.02.22-.02.33-.02.41,0,.82.05,1.2.15,2.15.54,3.75,2.49,3.75,4.8v109.37c0,2.73-2.22,4.95-4.95,4.95-1.55,0-2.94-.72-3.85-1.84-.69-.85-1.1-1.93-1.1-3.11Z"/>
  <path class="cls-2" d="M782.15,161.57l14.98.46,1.23-39.5,33.53,1.04.47-14.97-33.54-1.05.86-27.57-14.98-.47-.86,27.58-33.53-1.05-.47,14.98,33.54,1.04-1.23,39.51ZM794.17,158.88l-8.87-.27,1.13-36.45,8.87.27-1.13,36.45ZM753.26,109.19l30.49.95,1.52.04,1.53.05,8.87.28,1.53.05,1.53.04,30.48.95-.28,8.87-30.48-.95-1.53-.04-1.52-.05-8.87-.28-1.53-.05-1.53-.04-30.48-.95.27-8.87ZM787.66,82.66l8.87.28-.76,24.52-8.87-.28.76-24.52ZM169.59,501.65c0,1.51.42,2.92,1.14,4.12-1.29,2.16-3.16,3.93-5.4,5.1-1.87.98-4,1.53-6.25,1.53-3.51,0-6.9-.54-10.08-1.53-10.56-3.31-18.92-11.66-22.22-22.23-.99-3.18-1.53-6.56-1.53-10.07v-63.11c0-3.51.54-6.9,1.53-10.08,3.31-10.57,11.67-18.93,22.25-22.23,3.17-.99,6.55-1.52,10.05-1.52,2.24,0,4.36.55,6.23,1.52,2.23,1.16,4.11,2.92,5.4,5.06-.71,1.19-1.12,2.58-1.12,4.07v109.37ZM406.23,388.27c1.28-2.15,3.15-3.91,5.38-5.07,1.87-.98,4-1.53,6.25-1.53,3.5,0,6.87.53,10.04,1.53,10.58,3.29,18.95,11.65,22.26,22.22.99,3.18,1.53,6.57,1.53,10.08v63.12c0,3.51-.54,6.9-1.53,10.08-3.31,10.57-11.68,18.93-22.26,22.22-3.17,1-6.54,1.53-10.04,1.53-2.25,0-4.38-.55-6.25-1.53-2.24-1.17-4.12-2.95-5.41-5.11.72-1.2,1.14-2.61,1.14-4.11v-109.37c0-1.4-.36-2.71-.99-3.85-.04-.07-.08-.14-.12-.21ZM153.92,349.09l-2.99-.64c7.3-33.94,25.67-62.29,53.14-81.99,25.12-18.02,56.54-27.61,88.52-27.05,53.39.96,121.28,33.31,136.9,121.3l-3.01.53c-15.29-86.16-81.71-117.83-133.94-118.77-31.32-.57-62.09,8.84-86.68,26.48-26.84,19.25-44.8,46.96-51.93,80.15ZM177.6,384.27h-.17l.32-14.6,23.87-36.79,36.84-23.98,35.64-23.44,35.22,21.28,19.7-6.79,6.85,12.25,31.84-13.7h0c-18.13-11.32-41.78-19.01-71.72-20.03-53.97-1.82-119.06,24.12-134.36,85.44l-2.96-.74c7.06-28.31,25.03-51.6,51.97-67.37,24.27-14.2,54.62-21.43,85.45-20.39,29.28,1,57.12,9.54,78.39,24.06,23.75,16.21,38.89,39.3,43.79,66.79l-3.01.54c-4.16-23.34-18.46-49.35-45.65-67.09h0s-3.8,16.37-3.8,16.37l34.03,55.79.55,12.51c-.35-.05-.7-.07-1.06-.07-.16,0-.32,0-.47.01-.52.03-1.03.11-1.52.24-1.12.29-2.14.81-3.01,1.51h0c-.4.32-.76.67-1.09,1.06-.04.06-.09.12-.14.18h-.01c-.71.89-1.23,1.92-1.52,3.06-.16.62-.24,1.28-.24,1.95v74.04l-.89-.72-18.69-67.52-9.22-13.07-17.59,27.71-13.66-32.06-13.03,41.4-56.33-63.99-25.59,40.3-11.65-24.81c-9.26,9.05-18.96,18.87-19.84,20.39-1.06,4.3-10.39,33.59-19.23,61.12v-62.84c0-.59-.06-1.16-.18-1.71-.28-1.24-.84-2.38-1.61-3.33t-.01-.02c-.36-.43-.74-.81-1.17-1.16h-.01c-.64-.53-1.37-.95-2.16-1.26-.49-.19-1-.33-1.53-.42-.44-.07-.89-.11-1.34-.11ZM326.42,510.37v1.79l-37.87-6.03-37.6,6.04v-1.8c0-12.69,9.91-21.56,24.11-21.56h27.24c14.2,0,24.12,8.87,24.12,21.56ZM283.75,1086.9h12.59v3.06h-12.59v-3.06ZM308.92,1086.9h12.59v3.06h-12.59v-3.06ZM258.57,1086.9h12.59v3.06h-12.59v-3.06ZM334.09,1086.9h12.59v3.06h-12.59v-3.06ZM233.4,1086.9h12.59v3.06h-12.59v-3.06ZM459.95,1086.9h12.59v3.06h-12.59v-3.06ZM444.45,1002.26v-3.06h12.59v3.06h-12.59ZM434.78,1086.9h12.59v3.06h-12.59v-3.06ZM419.28,1002.26v-3.06h12.59v3.06h-12.59ZM469.62,1002.26v-3.06h12.59v3.06h-12.59ZM208.23,1086.9h12.59v3.06h-12.59v-3.06ZM406.69,999.2v3.06h-12.58v-3.06h12.58ZM359.26,1086.9h12.59v3.06h-12.59v-3.06ZM368.93,1002.26v-3.06h12.59v3.06h-12.59ZM350.52,999.2h5.83v3.06h-5.83v-3.06ZM384.44,1086.9h12.59v3.06h-12.59v-3.06ZM409.61,1086.9h12.59v3.06h-12.59v-3.06ZM132.71,1086.9h12.59v3.06h-12.59v-3.06ZM6.84,1086.9h12.59v3.06H6.84v-3.06ZM19.6,1008.35l5.4-7.61,1.08-1.53h3.02v3.06h-1.47l-5.57,7.87-2.46-1.78ZM57.19,1086.9h12.59v3.06h-12.59v-3.06ZM41.68,1002.26v-3.06h12.59v3.06h-12.59ZM32.02,1086.9h12.59v3.06h-12.59v-3.06ZM-2.4,1039.4l2.46,1.78-7.33,10.35-2.46-1.78,7.33-10.35ZM-18.33,1086.9H-5.74v3.06h-12.59v-3.06ZM7.39,1030.83l-2.46-1.78,7.33-10.35,2.46,1.78-7.33,10.35ZM157.88,1086.9h12.59v3.06h-12.59v-3.06ZM66.86,1002.26v-3.06h12.59v3.06h-12.59ZM183.05,1086.9h12.59v3.06h-12.59v-3.06ZM485.13,1086.9h12.59v3.06h-12.59v-3.06ZM82.36,1086.9h12.59v3.06h-12.59v-3.06ZM107.54,1086.9h12.59v3.06h-12.59v-3.06ZM847.22,1002.26v-3.06h12.58v3.06h-12.58ZM872.39,1002.26v-3.06h12.59v3.06h-12.59ZM887.89,1086.9h12.59v3.06h-12.59v-3.06ZM913.07,1086.9h12.59v3.06h-12.59v-3.06ZM922.73,1002.26v-3.06h12.59v3.06h-12.59ZM862.72,1086.9h12.59v3.06h-12.59v-3.06ZM812.37,1086.9h12.59v3.06h-12.59v-3.06ZM796.87,1002.26v-3.06h12.59v3.06h-12.59ZM938.24,1086.9h12.59v3.06h-12.59v-3.06ZM822.04,1002.26v-3.06h12.59v3.06h-12.59ZM837.55,1086.9h12.59v3.06h-12.59v-3.06ZM1023.42,1002.26v-3.06h12.59v3.06h-12.59ZM1013.76,1086.9h12.59v3.06h-12.59v-3.06ZM787.2,1086.9h12.59v3.06h-12.59v-3.06ZM1038.93,1086.9h12.59v3.06h-12.59v-3.06ZM973.08,1002.26v-3.06h12.59v3.06h-12.59ZM998.25,1002.26v-3.06h12.59v3.06h-12.59ZM947.9,1002.26v-3.06h12.59v3.06h-12.59ZM963.41,1086.9h12.59v3.06h-12.59v-3.06ZM988.58,1086.9h12.59v3.06h-12.59v-3.06ZM636.16,1086.9h12.59v3.06h-12.59v-3.06ZM595.48,1002.26v-3.06h12.59v3.06h-12.59ZM585.82,1086.9h12.59v3.06h-12.59v-3.06ZM494.79,1002.26v-3.06h12.59v3.06h-12.59ZM620.66,1002.26v-3.06h12.59v3.06h-12.59ZM610.99,1086.9h12.59v3.06h-12.59v-3.06ZM570.31,1002.26v-3.06h12.59v3.06h-12.59ZM510.3,1086.9h12.59v3.06h-12.59v-3.06ZM519.97,1002.26v-3.06h12.59v3.06h-12.59ZM535.47,1086.9h12.59v3.06h-12.59v-3.06ZM545.14,1002.26v-3.06h12.59v3.06h-12.59ZM560.65,1086.9h12.59v3.06h-12.59v-3.06ZM746.52,1002.26v-3.06h12.59v3.06h-12.59ZM736.86,1086.9h12.59v3.06h-12.59v-3.06ZM656.13,1002.26h2.29v-3.06h.71v-37.1c.43-1.88.65-3.83.65-5.83v-5.8l201.95,3.29-.7,4.27c-1.16,7.07.51,14.17,4.7,19.98,4.18,5.81,10.38,9.65,17.45,10.8,1.45.24,2.9.35,4.33.35,5,0,9.77-1.4,13.87-3.9v13.94h-3.82v3.06h12.59v-3.06h-5.71v-16.09c4.91-4,8.43-9.73,9.52-16.45l40.69-249.76c1.15-7.06-.52-14.16-4.7-19.97-4.19-5.82-10.38-9.65-17.45-10.8-7.08-1.15-14.17.52-19.98,4.7-4.11,2.96-7.24,6.93-9.12,11.51-5.04-25.87-27.88-45.46-55.21-45.46h-43.91c26.37-6.04,49.49-20.72,66.2-40.89,2.79,24.4,12.16,41.88,23.6,41.88s21.49-18.77,23.87-44.56c11.17-5.55,18.86-17.08,18.86-30.37,0-.76-.03-1.52-.08-2.27,9.7-5.04,16.68-14.64,18.07-25.94,15.42-3.18,27.06-16.86,27.06-33.21,0-10.24-4.56-19.43-11.76-25.65,3.56-4.24,5.7-9.7,5.7-15.65,0-6.81-2.81-12.99-7.34-17.41,2.45-3.79,3.87-8.3,3.87-13.14,0-7.21-3.15-13.7-8.15-18.17.69-2.24,1.06-4.62,1.06-7.09,0-5.28-1.69-10.18-4.56-14.17,1.54-3.19,2.4-6.76,2.4-10.53,0-13.43-10.94-24.37-24.37-24.37-.93,0-1.85.05-2.76.16-.71-12.81-11.36-23-24.33-23-7.39,0-14.01,3.3-18.47,8.51l4.88-157.11c6.21-.16,12.08-2.57,16.64-6.86,4.95-4.65,7.78-10.94,7.99-17.72.22-6.77-2.23-13.23-6.87-18.17-4.64-4.94-10.93-7.78-17.71-7.99-6.78-.22-13.24,2.23-18.18,6.87-3.06,2.88-5.32,6.39-6.64,10.26l-.77-.02-30.29,104.95-37.36-1.16,3.28-105.79-41.8-1.3-3.29,105.79-24.24-.76-33.81-102c-.39-5.83-2.75-11.3-6.81-15.61-4.65-4.95-10.94-7.78-17.71-7.99-6.77-.22-13.24,2.23-18.18,6.87-4.94,4.64-7.78,10.94-7.99,17.71-.21,6.78,2.23,13.24,6.88,18.18,4.29,4.57,9.99,7.34,16.18,7.89l-4.26,137.21c-2.98-1.31-6.27-2.03-9.72-2.03-13.44,0-24.37,10.94-24.37,24.37,0,2.14.28,4.21.8,6.18-9.83,2.28-17.39,10.53-18.64,20.71-10.33,2.82-17.94,12.3-17.94,23.5,0,6.89,2.87,13.12,7.48,17.54-3.83,3.68-6.46,8.6-7.23,14.11-12.85.67-23.09,11.33-23.09,24.34,0,10,6.06,18.62,14.7,22.36-10,3.03-17.3,12.34-17.3,23.32,0,13.22,10.58,24.02,23.73,24.35-1.4,3.07-2.18,6.47-2.18,10.05,0,9.69,5.68,18.07,13.88,22-2.91,4-4.62,8.93-4.62,14.25,0,13.44,10.94,24.37,24.37,24.37,6.05,0,11.6-2.22,15.87-5.9v.55c0,32.04,10.74,57.13,24.45,57.13,9.17,0,17.01-11.22,21.19-28.25,15.35,14.38,34.44,24.82,55.63,29.67h-37.78c-15.29,0-29.18,6.14-39.33,16.09l-.45-.22-.57,1.24c-5.96,6.14-10.53,13.62-13.21,21.95-3.17-11.27-13.53-19.54-25.8-19.54-14.78,0-26.81,12.03-26.81,26.82v253.05c0,14.78,12.03,26.81,26.81,26.81,9.84,0,18.46-5.33,23.12-13.25v29.37h-10.25v3.06h10.3ZM659.78,947.42v-239.76l14.3-30.96c18.62,5.86,191.44,48.35,223.62,56.25l-35.48,217.75-202.44-3.28ZM910.94,966.17c-.8,4.91-3.07,9.35-6.5,12.82-.93.95-1.96,1.83-3.06,2.63,0,.01-.01.01-.01.01-5.15,3.71-11.44,5.19-17.7,4.17-12.93-2.11-21.73-14.34-19.63-27.27l.77-4.72.5-3.06,27.99-171.78,8.08,1.64,3.06.61,35.47,7.16-28.97,177.79ZM940.4,785.36l-35.96-7.26-3.06-.62-7.59-1.53,6.88-42.22.71.19,3.06.84,42.31,11.6-6.35,39ZM904.39,710.9l.35-2.13c1.89-11.64,12-19.94,23.43-19.94,1.27,0,2.55.1,3.83.31,12.94,2.11,21.74,14.34,19.63,27.27l-4.39,26.92-42.8-11.74v-.13l-1.17-.29c-.62-.15-1.25-.31-1.89-.46-.07-.02-.14-.04-.21-.05l.21-1.27,3.01-18.49ZM872.69,600.74c0-.8.01-1.6.03-2.39.92,1.8,2,3.5,3.22,5.1-.97,1.5-1.99,2.97-3.05,4.42-.13-2.34-.2-4.72-.2-7.13ZM692.61,621.09c-.65-.65-1.27-1.31-1.87-1.97,1.01-1.03,1.93-2.16,2.74-3.36-.25,1.82-.54,3.6-.87,5.33ZM676.1,335.83l4.31-138.69c11.54-.32,21.28-8.43,23.93-19.37l32.22,97.22,29.43.92,3.29-105.79,35.7,1.11-3.29,105.79,42.79,1.33,27.7-96.01c.75,5.06,3.02,9.77,6.61,13.58,4.29,4.57,10,7.34,16.19,7.89l-5.04,161.95-.13,4.32h0s-.32,10.31-.32,10.31l-.03.98c-.09-.08-.18-.16-.28-.24.07.39.15.77.25,1.15v.3s-.93-.03-.93-.03l-.58-.02s-.02-.07-.02-.11c-.04.04-.07.07-.08.11l-1.89-.06-23.92-.74-2.55-.08-2.29-.07-3.35-.11c-3.3-2.01-7.11-3.26-11.19-3.5-.75-12.44-10.87-22.39-23.37-22.87-4.46-5.72-11.42-9.41-19.22-9.41-12.24,0-22.4,9.06-24.12,20.83-3.95-2.77-8.76-4.39-13.94-4.39-4.04,0-7.85.99-11.21,2.73-4.19-7.38-12.12-12.36-21.19-12.36-5.53,0-10.63,1.85-14.72,4.97-4.05-3.09-9.1-4.93-14.56-4.97-3.97-4.47-9.56-7.48-15.84-8.09-.61-.06-1.22-.1-1.84-.11h-.01c-.18-.01-.36-.01-.54-.01-.44,0-.87.01-1.3.03-1.71.09-3.37.36-4.96.79l.17-5.67.06-1.84.06-1.77ZM680.36,149.45c5.96.19,11.5,2.68,15.58,7.03,2.31,2.46,4,5.34,4.99,8.46.17.5.31,1.01.44,1.53.33,1.36.53,2.75.61,4.17.01.38.02.75.02,1.13,0,.24,0,.47-.01.7-.36,11.79-9.82,21.17-21.49,21.61-.5.02-1.02.02-1.53,0-.51-.02-1.02-.05-1.52-.11-5.38-.51-10.32-2.94-14.06-6.91-4.08-4.35-6.23-10.03-6.04-15.99.37-12.08,10.31-21.64,22.31-21.64.23,0,.47,0,.7.01ZM876.48,170.39c1.2-3.05,3.06-5.82,5.52-8.13,4.17-3.92,9.57-6.06,15.27-6.06.24,0,.47.01.71.01,5.96.19,11.5,2.69,15.58,7.03,4.09,4.35,6.24,10.03,6.05,15.99-.18,5.96-2.68,11.5-7.03,15.58-3.97,3.73-9.06,5.85-14.45,6.04-.51.03-1.02.03-1.54.01-.51-.02-1.02-.05-1.52-.1-5.38-.53-10.32-2.95-14.06-6.93-4.08-4.35-6.23-10.03-6.04-15.99.05-1.51.24-2.99.57-4.42.12-.51.26-1.02.42-1.52.15-.51.33-1.01.52-1.51ZM665.88,425.71c.31-.35.62-.71.91-1.08.28,1.28.67,2.52,1.16,3.71-.63-.93-1.32-1.8-2.07-2.63ZM679.61,578.62c.38-1.68.57-3.42.57-5.21,0-.63-.02-1.25-.08-1.86,3.75-2.23,6.86-5.43,8.97-9.25,2.75,7.66,4.66,17.24,5.34,27.72-3.19-5.54-8.5-9.71-14.8-11.4ZM887.33,552.84c-1.83.94-3.56,2.05-5.17,3.31,1.56-2.73,3.28-4.95,5.1-6.56-.01.32-.01.65-.01.98,0,.76.03,1.52.08,2.27ZM894.08,654.81c-10,0-18.66-18.41-20.85-42.27,1.67-2.16,3.25-4.37,4.76-6.64,6.2,6.72,15.07,10.94,24.92,10.94,4.15,0,8.12-.75,11.8-2.12-2.5,22.8-10.94,40.09-20.63,40.09ZM673.28,652.41c-9.2,0-17.27-15.59-20.21-36.67,4.38,6.5,11.8,10.78,20.21,10.78,5.74,0,11.03-1.99,15.19-5.34,1.1,1.19,2.23,2.36,3.39,3.51-3.72,16.39-10.74,27.72-18.58,27.72ZM695.26,623.73c1.59-7.61,2.47-16.22,2.47-25.4,0-15.78-2.61-29.88-6.89-40.12.81-2.4,1.24-4.97,1.24-7.64,0-5.65-1.93-10.85-5.17-14.98,6.48-4.39,10.74-11.81,10.74-20.2,0-7.48-3.4-14.19-8.73-18.67,12.17-1.34,21.66-11.69,21.66-24.21,0-4.12-1.03-8.01-2.84-11.42,1.33-2.5,2.24-5.27,2.62-8.19,4.29,3.74,9.89,6.01,16.01,6.01,9.24,0,17.29-5.17,21.43-12.76,4.13,7.59,12.18,12.76,21.42,12.76.1,0,.19,0,.29,0,3.64,8.87,12.38,15.14,22.55,15.14,3,0,5.88-.54,8.54-1.55,4.46,5.64,11.36,9.26,19.1,9.26.97,0,1.93-.06,2.87-.18,2.88,7.19,9.1,12.69,16.73,14.58,3.89,8.29,12.32,14.04,22.07,14.04,5.21,0,10.05-1.64,14.01-4.44.54.84,1.12,1.64,1.76,2.4-2.04,3.56-3.2,7.68-3.2,12.07,0,9.85,5.87,18.35,14.3,22.19-.25,1.03-.46,2.08-.62,3.14-4.73,2.92-8.86,8.99-11.97,17.25-4.17,5.63-6.64,12.6-6.64,20.14,0,2.77.33,5.46.97,8.04-.23,3.16-.35,6.42-.35,9.76,0,3.74.15,7.38.43,10.9-21.63,27.53-55.22,45.24-92.87,45.24-31.79,0-60.69-12.63-81.93-33.15ZM712.32,659.94h135.87c28.52,0,51.88,22.57,53.13,50.78l-3.13,19.2c-61.71-15.14-202.33-49.88-222.04-55.75,9.5-8.82,22.22-14.23,36.17-14.23ZM665.76,687.43l-3.26,7.06c.92-2.44,2.01-4.8,3.26-7.06ZM609.21,703.22c0-13.1,10.65-23.76,23.75-23.76s23.76,10.66,23.76,23.76v1.41c-.16,1.07-.3,2.15-.39,3.24l-.25.53v17.24h-46.87v-22.42ZM632.96,980.02c-13.1,0-23.75-10.65-23.75-23.75v-227.57h46.87v233.03c-2.47,10.48-11.9,18.29-23.12,18.29ZM762.03,1086.9h12.59v3.06h-12.59v-3.06ZM711.68,1086.9h12.59v3.06h-12.59v-3.06ZM771.7,1002.26v-3.06h12.58v3.06h-12.58ZM721.35,1002.26v-3.06h12.59v3.06h-12.59ZM671.01,1002.26v-3.06h12.58v3.06h-12.58ZM661.34,1086.9h12.59v3.06h-12.59v-3.06ZM686.51,1086.9h12.59v3.06h-12.59v-3.06ZM696.18,1002.26v-3.06h12.59v3.06h-12.59ZM172.55,507.87c-.51-.25-.93-.67-1.17-1.18.34.44.73.83,1.17,1.18ZM171.39,387.23c.25-.5.65-.91,1.15-1.15-.43.34-.81.73-1.15,1.15ZM182.55,501.65c0,1.12-.38,2.17-1.02,3-.9,1.19-2.33,1.95-3.93,1.95-2.73,0-4.95-2.22-4.95-4.95v-109.37c0-2.65,2.09-4.82,4.71-4.94.08,0,.16,0,.24,0,.44,0,.87.06,1.27.17.55.14,1.06.38,1.52.7.75.5,1.34,1.21,1.71,2.04.29.62.45,1.31.45,2.04v109.37ZM395.49,504.81c-.69-.85-1.1-1.93-1.1-3.11v-109.37c0-.8.19-1.55.53-2.22.54-1.07,1.45-1.92,2.57-2.37.47-.19.98-.31,1.52-.34.11-.02.22-.02.33-.02.41,0,.82.05,1.2.15,2.15.54,3.75,2.49,3.75,4.8v109.37c0,2.73-2.22,4.95-4.95,4.95-1.55,0-2.94-.72-3.85-1.84ZM405.56,506.72h0c-.25.52-.67.94-1.19,1.19.44-.37.84-.75,1.18-1.19ZM404.37,386.11c.53.25.95.68,1.2,1.21-.35-.45-.75-.85-1.2-1.21ZM348.99,893.11h-1.53v-12.73h3.06v12.73h-1.53ZM157.98,1053.02h12.74v3.05h-12.74v-3.05ZM285.32,1053.02h12.74v3.05h-12.74v-3.05ZM234.39,1053.02h12.73v3.05h-12.73v-3.05ZM259.86,1053.02h12.73v3.05h-12.73v-3.05ZM183.45,1053.02h12.74v3.05h-12.74v-3.05ZM208.92,1053.02h12.73v3.05h-12.73v-3.05ZM310.79,1053.02h12.73v3.05h-12.73v-3.05ZM91.93,1017.2h3.06v12.73h-3.06v-12.73ZM350.52,1020.45h-3.06v-12.73h3.06v12.73ZM119.78,1056.07h-12.73v-3.05h12.73v3.05ZM91.93,1042.67h3.06v11.88h-.68v1.52h-2.38v-13.4ZM91.93,1004.46v-12.73h3.06v12.73h-3.06ZM145.25,1056.07h-12.73v-3.05h12.73v3.05ZM311.99,867.97v-3.05h12.73v3.05h-12.73ZM159.18,867.97v-3.05h12.74v3.05h-12.74ZM145.88,867.97h.57v-3.05h2.07l-5.53-38.47,24.89-3.57,3.06-.44,19.09-2.74,6.5,45.22h-11.88v3.05h12.73v-3.05h2.23l-28.2-196.28c-.12-.83-.28-1.65-.47-2.46v-24.43c0-31.73,20.9-58.68,49.67-67.79,10.74,23.13,35.04,37.72,63.89,38.25.54,0,1.09.02,1.63.02,30.19,0,56.26-15.37,68.57-40.44,33.21,5.96,58.48,35.07,58.48,69.96v23.02c-.51,2.05-.78,4.19-.78,6.39v253.05c0,2.21.27,4.35.78,6.4v70.12h3.06v-62.71c4.69,7.79,13.24,13.01,22.98,13.01,14.78,0,26.81-12.03,26.81-26.82v-253.05c0-14.78-12.03-26.81-26.81-26.81-9.74,0-18.29,5.22-22.98,13.01v-15.61c0-40.88-33.26-74.14-74.14-74.14h-34.58c37.02-5.84,68.52-28.53,86.39-59.92h0c.13.09.26.16.4.23-.13-.1-.25-.2-.37-.31-.3-.28-.58-.57-.83-.89h-.01c-.45-.57-.83-1.18-1.12-1.86-20.11,36.45-58.94,61.19-103.43,61.19s-83.45-24.82-103.53-61.37c-.29.68-.66,1.34-1.14,1.9,0,0-.01.02-.02.03t0,.02s0,.01-.01.02t-.01.02c-.23.29-.48.56-.75.81-.14.13-.28.26-.43.38.17-.08.33-.19.47-.3,0,0,0,0,0,.01,17.85,31.46,49.38,54.19,86.45,60.04h-27.56c-40.88,0-74.14,33.26-74.14,74.14v16.96c-5.38-9-15.82-14.38-26.82-12.8-7.09,1.02-13.36,4.74-17.66,10.47-4.29,5.73-6.09,12.8-5.07,19.89l27.11,188.65h-11.73v3.05h12.17ZM462.98,924.21c0,13.1-10.66,23.76-23.76,23.76-11.01,0-20.3-7.53-22.98-17.72v-106.92h46.74v100.88ZM439.22,647.41c13.1,0,23.76,10.65,23.76,23.75v149.12h-46.74v-155.16c2.68-10.18,11.97-17.71,22.98-17.71ZM242.02,570.67h100.08c3.19,0,6.34.21,9.42.62-12.17,23.94-37.61,38.37-66.97,37.87-27.48-.5-50.62-14.26-60.97-36.06,5.88-1.59,12.06-2.43,18.44-2.43ZM125.85,658.21c3.8-5.08,9.36-8.37,15.64-9.28,1.14-.16,2.27-.24,3.39-.24,10.78,0,20.32,7.36,23,17.86.22.82.39,1.66.51,2.52l2.55,17.75,18.66,129.85-18.66,2.68-3.06.43-25.32,3.64-21.21-147.59c-.9-6.28.7-12.54,4.5-17.62ZM94.99,928.06h-3.06v-12.73h3.06v12.73ZM261.05,867.97v-3.05h12.74v3.05h-12.74ZM235.59,867.97v-3.05h12.73v3.05h-12.73ZM210.12,867.97v-3.05h12.73v3.05h-12.73ZM337.46,867.97v-3.05h13.06v2.72h-1.53v.33h-11.53ZM94.99,953.53h-3.06v-12.74h3.06v12.74ZM286.52,867.97v-3.05h12.74v3.05h-12.74ZM347.46,905.84h3.06v12.74h-3.06v-12.74ZM347.46,931.31h3.06v12.74h-3.06v-12.74ZM347.46,956.78h3.06v12.73h-3.06v-12.73ZM94.99,902.59h-3.06v-12.73h3.06v12.73ZM108.25,867.97v-3.05h12.73v3.05h-12.73ZM94.99,877.12h-3.06v-12.2h3.58v3.05h-.52v9.15ZM347.46,982.25h3.06v12.73h-3.06v-12.73ZM94.99,979h-3.06v-12.74h3.06v12.74ZM350.52,1046.04h-3.06v-12.86h3.06v12.86ZM379.08,1023.66h17.08l-4.46,3.09-.42-.61v.58h-12.2v-3.06ZM353.61,1023.66h12.74v3.06h-12.74v-3.06ZM360.33,1048.54l-10.47,7.26-.87-1.25v1.52h-12.73v-3.05h12.25l1.74-1.21,8.33-5.78,1.75,2.51ZM379.5,1031.51l1.75,2.51-10.46,7.26-1.75-2.51,10.46-7.26ZM721.23,1050.37h-12.73v-2.55h12.73v2.55ZM844.19,1018.64h-12.73v-2.54h12.73v2.54ZM823.1,1050.37h-12.73v-2.55h12.73v2.55ZM869.66,1018.64h-12.74v-2.54h12.74v2.54ZM742.32,1018.64h-12.74v-2.54h12.74v2.54ZM848.57,1050.37h-12.73v-2.55h12.73v2.55ZM716.85,1018.64h-12.73v-2.54h12.73v2.54ZM793.25,1018.64h-12.73v-2.54h12.73v2.54ZM746.7,1050.37h-12.74v-2.55h12.74v2.55ZM772.17,1050.37h-12.74v-2.55h12.74v2.55ZM818.72,1018.64h-12.73v-2.54h12.73v2.54ZM691.38,1018.64h-12.73v-2.54h12.73v2.54ZM767.79,1018.64h-12.74v-2.54h12.74v2.54ZM949.74,1049.1h2.38v12.73h-2.54v-11.46h-11.87v-2.55h7.99l1.42-1.39,2.62,2.67ZM797.63,1050.37h-12.73v-2.55h12.73v2.55ZM886.77,1047.82h12.73v2.55h-12.73v-2.55ZM912.24,1047.82h12.73v2.55h-12.73v-2.55ZM916.31,1018.64h-8.45v-2.54h9.52l3,3.05-1.82,1.78-2.25-2.29ZM936.39,1039.12l-8.91-9.09,1.81-1.79,8.92,9.1-1.82,1.78ZM895.13,1018.64h-12.74v-2.54h12.74v2.54ZM864.77,1050.37h-3.47v-2.55h12.74v2.55h-9.27ZM696.51,1060.9h12.73v2.54h-12.73v-2.54ZM849.32,1060.9h12.73v2.54h-12.73v-2.54ZM874.78,1060.9h12.74v2.54h-12.74v-2.54ZM938.45,1063.44h-12.73v-2.54h12.73v2.54ZM900.25,1060.9h12.73v2.54h-12.73v-2.54ZM823.85,1060.9h12.73v2.54h-12.73v-2.54ZM681.4,1048.42l4.53,11.9-2.38.91-4.53-11.9,2.38-.91ZM772.91,1060.9h12.74v2.54h-12.74v-2.54ZM721.98,1060.9h12.73v2.54h-12.73v-2.54ZM747.44,1060.9h12.74v2.54h-12.74v-2.54ZM798.38,1060.9h12.73v2.54h-12.73v-2.54ZM679.27,1025.41l-.95,11.47-2.54-.21,1.05-12.69,2.14.18-.16-.66-.48-2.01,2.47-.6.48,2.01h.01l2.48,10.37.49,2.02-2.48.59-.48-2.01-2.03-8.46ZM684.75,1048.26l-.48-2.01,1.49-.35.99-.24.22.92c.8.43,1.62.85,2.44,1.24h6.35v2.55h-10.5l-.24-.98-.11-.47-.16-.66ZM888.07,382.18c-.07.08-.13.16-.17.24-.05-.15-.08-.31-.11-.46.09.07.19.14.28.22ZM-29.28,1082.57l-3.07,4.33h1.44v3.06h-7.32l6.5-9.17,2.46,1.78ZM1076.01,1022.33v-2.3l-6.66-8.6-2.38,1.89,7.76,10.03,1.28-1.01ZM-17.07,1060.09l-7.33,10.35,2.46,1.78,7.33-10.35-2.46-1.78ZM1048.6,999.21v3.06h9.82l.8,1.03,2.38-1.88-1.7-2.2h-11.3ZM1076.01,1086.9h-11.91v3.06h11.91v-3.06Z"/>
</svg>