<?xml version="1.0" encoding="UTF-8"?>
<svg id="Layer_1" data-name="Layer 1" xmlns="http://www.w3.org/2000/svg" viewBox="0 0 1080 1350">
  <defs>
    <style>
      .cls-1 {
        stroke-dasharray: 4.78 4.78;
      }

      .cls-1, .cls-2, .cls-3, .cls-4, .cls-5, .cls-6, .cls-7, .cls-8, .cls-9, .cls-10, .cls-11, .cls-12, .cls-13, .cls-14, .cls-15, .cls-16, .cls-17, .cls-18, .cls-19, .cls-20, .cls-21, .cls-22, .cls-23, .cls-24, .cls-25, .cls-26, .cls-27, .cls-28, .cls-29, .cls-30, .cls-31, .cls-32, .cls-33, .cls-34, .cls-35, .cls-36, .cls-37, .cls-38, .cls-39, .cls-40, .cls-41, .cls-42, .cls-43, .cls-44, .cls-45, .cls-46, .cls-47, .cls-48, .cls-49, .cls-50, .cls-51, .cls-52, .cls-53, .cls-54, .cls-55, .cls-56, .cls-57, .cls-58, .cls-59, .cls-60, .cls-61, .cls-62, .cls-63, .cls-64, .cls-65, .cls-66, .cls-67, .cls-68, .cls-69, .cls-70, .cls-71, .cls-72, .cls-73, .cls-74, .cls-75 {
        fill: none;
        stroke: #f73400;
        stroke-miterlimit: 10;
        stroke-width: 1.7px;
      }

      .cls-2 {
        stroke-dasharray: 4.63 4.63;
      }

      .cls-3 {
        stroke-dasharray: 5.04 5.04;
      }

      .cls-4 {
        stroke-dasharray: 4.83 4.83;
      }

      .cls-5 {
        stroke-dasharray: 5.02 5.02;
      }

      .cls-6 {
        stroke-dasharray: 4.79 4.79;
      }

      .cls-7 {
        stroke-dasharray: 4.98 4.98;
      }

      .cls-8 {
        stroke-dasharray: 4.99 4.99;
      }

      .cls-76 {
        letter-spacing: -.02em;
      }

      .cls-9 {
        stroke-dasharray: 4.99 4.99;
      }

      .cls-10 {
        stroke-dasharray: 4.95 4.95;
      }

      .cls-11 {
        stroke-dasharray: 5.31 5.31;
      }

      .cls-12 {
        stroke-dasharray: 5.11 5.11;
      }

      .cls-13 {
        stroke-dasharray: 4.97 4.97;
      }

      .cls-14 {
        stroke-dasharray: 4.37 4.37;
      }

      .cls-15 {
        stroke-dasharray: 4.62 4.62;
      }

      .cls-16 {
        stroke-dasharray: 5.01 5.01;
      }

      .cls-17 {
        stroke-dasharray: 5.1 5.1;
      }

      .cls-18 {
        stroke-dasharray: 4.27 4.27;
      }

      .cls-19 {
        stroke-dasharray: 4.97 4.97;
      }

      .cls-20 {
        stroke-dasharray: 4.91 4.91;
      }

      .cls-21 {
        stroke-dasharray: 4.97 4.97;
      }

      .cls-22 {
        stroke-dasharray: 5.08 5.08;
      }

      .cls-23 {
        stroke-dasharray: 4.83 4.83;
      }

      .cls-77 {
        fill: #fff;
      }

      .cls-24 {
        stroke-dasharray: 5.02 5.02;
      }

      .cls-25 {
        stroke-dasharray: 5.02 5.02;
      }

      .cls-26 {
        stroke-dasharray: 4.89 4.89;
      }

      .cls-27 {
        stroke-dasharray: 5.6 5.6;
      }

      .cls-28 {
        stroke-dasharray: 4.98 4.98;
      }

      .cls-29 {
        stroke-dasharray: 4.97 4.97;
      }

      .cls-30 {
        stroke-dasharray: 4.98 4.98;
      }

      .cls-31 {
        stroke-dasharray: 4.98 4.98;
      }

      .cls-32 {
        stroke-dasharray: 5.25 5.25;
      }

      .cls-33 {
        stroke-dasharray: 5.14 5.14;
      }

      .cls-78, .cls-79 {
        fill: #231f20;
      }

      .cls-34 {
        stroke-dasharray: 5.21 5.21;
      }

      .cls-35 {
        stroke-dasharray: 5.09 5.09;
      }

      .cls-80 {
        letter-spacing: -.05em;
      }

      .cls-36 {
        stroke-dasharray: 5.01 5.01;
      }

      .cls-37 {
        stroke-dasharray: 5.02 5.02;
      }

      .cls-38 {
        stroke-dasharray: 4.98 4.98;
      }

      .cls-39 {
        stroke-dasharray: 4.75 4.75;
      }

      .cls-40 {
        stroke-dasharray: 4.93 4.93;
      }

      .cls-79 {
        font-family: ITCAvantGardePro-Demi, 'ITC Avant Garde Gothic Pro';
        font-size: 39px;
        font-weight: 300;
      }

      .cls-41 {
        stroke-dasharray: 5.02 5.02;
      }

      .cls-42 {
        stroke-dasharray: 4.98 4.98;
      }

      .cls-43 {
        stroke-dasharray: 4.92 4.92;
      }

      .cls-44 {
        stroke-dasharray: 5.13 5.13;
      }

      .cls-45 {
        stroke-dasharray: 4.99 4.99;
      }

      .cls-46 {
        stroke-dasharray: 5.19 5.19;
      }

      .cls-47 {
        stroke-dasharray: 5.07 5.07;
      }

      .cls-48 {
        stroke-dasharray: 4.77 4.77;
      }

      .cls-49 {
        stroke-dasharray: 5 5;
      }

      .cls-81 {
        fill: #1d1d1b;
      }

      .cls-50 {
        stroke-dasharray: 4.97 4.97;
      }

      .cls-51 {
        stroke-dasharray: 4.76 4.76;
      }

      .cls-52 {
        stroke-dasharray: 5.55 5.55;
      }

      .cls-53 {
        stroke-dasharray: 5.06 5.06;
      }

      .cls-54 {
        stroke-dasharray: 5.04 5.04;
      }

      .cls-55 {
        stroke-dasharray: 4.37 4.37;
      }

      .cls-56 {
        stroke-dasharray: 5.01 5.01;
      }

      .cls-57 {
        stroke-dasharray: 5.02 5.02;
      }

      .cls-58 {
        stroke-dasharray: 4.98 4.98;
      }

      .cls-59 {
        stroke-dasharray: 5.54 5.54;
      }

      .cls-60 {
        stroke-dasharray: 4.88 4.88;
      }

      .cls-61 {
        stroke-dasharray: 5 5;
      }

      .cls-62 {
        stroke-dasharray: 4.62 4.62;
      }

      .cls-64 {
        stroke-dasharray: 4.95 4.95;
      }

      .cls-65 {
        stroke-dasharray: 4.99 4.99;
      }

      .cls-66 {
        stroke-dasharray: 5.09 5.09;
      }

      .cls-67 {
        stroke-dasharray: 4.92 4.92;
      }

      .cls-68 {
        stroke-dasharray: 5.04 5.04;
      }

      .cls-69 {
        stroke-dasharray: 5.09 5.09;
      }

      .cls-70 {
        stroke-dasharray: 5.18 5.18;
      }

      .cls-71 {
        stroke-dasharray: 5.41 5.41;
      }

      .cls-72 {
        stroke-dasharray: 5 5;
      }

      .cls-73 {
        stroke-dasharray: 4.98 4.98;
      }

      .cls-74 {
        stroke-dasharray: 5.12 5.12;
      }

      .cls-75 {
        stroke-dasharray: 5.11 5.11;
      }
    </style>
  </defs>
  <g>
    <g>
      <polyline class="cls-63" points="118.33 274.17 115.85 274.46 115.56 271.97"/>
      <line class="cls-51" x1="115.01" y1="267.25" x2="110.89" y2="231.81"/>
      <polyline class="cls-63" points="110.61 229.45 110.32 226.97 107.84 227.26"/>
      <line class="cls-28" x1="102.89" y1="227.83" x2="6.41" y2="239.06"/>
      <polyline class="cls-63" points="3.94 239.34 1.46 239.63 1.75 242.12"/>
      <line class="cls-51" x1="2.3" y1="246.84" x2="6.42" y2="282.28"/>
      <polyline class="cls-63" points="6.69 284.64 6.98 287.12 4.5 287.41"/>
      <line class="cls-28" x1="4.78" y1="203.43" x2="101.25" y2="192.21"/>
      <polyline class="cls-63" points="103.73 191.92 106.21 191.63 105.92 189.15"/>
      <line class="cls-47" x1="105.34" y1="184.11" x2="85.7" y2="15.33"/>
      <polyline class="cls-63" points="85.41 12.81 85.12 10.33 87.6 10.04"/>
      <line class="cls-23" x1="92.4" y1="9.48" x2="118.79" y2="6.41"/>
      <polyline class="cls-63" points="121.19 6.13 123.67 5.84 123.96 8.33"/>
      <line class="cls-43" x1="124.53" y1="13.22" x2="153.82" y2="265.05"/>
      <polyline class="cls-63" points="154.11 267.49 154.39 269.97 151.91 270.26"/>
      <line class="cls-23" x1="147.11" y1="270.82" x2="120.73" y2="273.89"/>
    </g>
    <g>
      <polyline class="cls-63" points="187.29 266.15 184.81 266.44 184.52 263.95"/>
      <line class="cls-43" x1="183.95" y1="259.06" x2="154.66" y2="7.23"/>
      <polyline class="cls-63" points="154.37 4.79 154.08 2.31 156.57 2.02"/>
      <line class="cls-4" x1="161.36" y1="1.46" x2="187.75" y2="-1.61"/>
      <polyline class="cls-63" points="190.15 -1.89 192.63 -2.18 192.92 .31"/>
      <line class="cls-43" x1="193.49" y1="5.2" x2="222.78" y2="257.02"/>
      <polyline class="cls-63" points="223.07 259.47 223.36 261.95 220.87 262.24"/>
      <line class="cls-4" x1="216.08" y1="262.8" x2="189.69" y2="265.87"/>
    </g>
    <g>
      <polyline class="cls-63" points="254.03 258.38 251.55 258.67 251.26 256.19"/>
      <line class="cls-43" x1="250.69" y1="251.3" x2="221.4" y2="-.53"/>
      <path class="cls-16" d="M228.28-6.33l84.27-9.8c79.95-9.3,136.2,48.19,144.21,117.08,9.38,80.67-35.68,138-119.2,147.72l-81.05,9.43"/>
    </g>
    <g>
      <polyline class="cls-63" points="492.36 230.66 489.88 230.95 489.59 228.46"/>
      <line class="cls-43" x1="489.02" y1="223.58" x2="459.72" y2="-28.25"/>
      <path class="cls-36" d="M466.61-34.05l84.27-9.8c79.95-9.3,136.2,48.19,144.21,117.08,9.38,80.67-35.68,138-119.2,147.72l-81.05,9.43"/>
    </g>
    <g>
      <path class="cls-63" d="M902.96,177.49l.29,2.48c-.5.37-1.23.79-2.16,1.26"/>
      <path class="cls-38" d="M896.53,183.22c-9.52,3.75-26.19,8.54-38.76,10-79.95,9.3-142.54-46.73-151.35-122.4-8.97-77.1,42.36-142.76,117.32-151.48,19.16-2.23,32.53-1.26,44.58,1.14"/>
      <path class="cls-64" d="M870.96-41.79c-12.62-4.74-25.42-5.59-42.04-3.66-46.66,5.43-79.22,38.73-84.2,88.8"/>
      <path class="cls-63" d="M744.49,45.83c-.07.83-.13,1.66-.18,2.5l2.48-.29"/>
      <line class="cls-7" x1="751.75" y1="47.46" x2="877.85" y2="32.79"/>
      <polyline class="cls-63" points="880.32 32.5 882.81 32.21 883.09 34.7"/>
      <line class="cls-14" x1="883.6" y1="39.04" x2="886.38" y2="62.9"/>
      <polyline class="cls-63" points="886.63 65.07 886.92 67.55 884.43 67.84"/>
      <line class="cls-7" x1="879.49" y1="68.42" x2="753.38" y2="83.08"/>
      <path class="cls-63" d="M750.91,83.37l-2.48.29c.23.8.47,1.6.72,2.4"/>
      <path class="cls-45" d="M750.72,90.79c16.39,46.02,57.44,72.38,103.64,67.01,13.9-1.62,27.14-6.42,40.14-15.27"/>
      <path class="cls-63" d="M896.54,141.11c.67-.48,1.35-.97,2.02-1.48l.29,2.48"/>
      <line class="cls-69" x1="899.43" y1="147.17" x2="902.67" y2="174.96"/>
    </g>
    <g>
      <line class="cls-35" x1="1090.1" y1="154.69" x2="943.7" y2="-24.5"/>
      <line class="cls-26" x1="940.65" y1="-20.98" x2="962.98" y2="170.94"/>
      <polyline class="cls-63" points="963.26 173.36 963.55 175.85 961.07 176.14"/>
      <line class="cls-23" x1="956.27" y1="176.69" x2="929.88" y2="179.76"/>
      <polyline class="cls-63" points="927.48 180.04 925 180.33 924.71 177.85"/>
      <line class="cls-43" x1="924.14" y1="172.96" x2="894.85" y2="-78.87"/>
      <line class="cls-61" x1="941.14" y1="-82.88" x2="1085.1" y2="93.43"/>
      <line class="cls-53" x1="1088.1" y1="89.72" x2="1066.18" y2="-98.73"/>
    </g>
    <g>
      <path class="cls-63" d="M81.01,382.5l-2.48.29c-.1-.84-.21-1.66-.35-2.48"/>
      <path class="cls-5" d="M77.13,375.41c-5.13-19.07-20.76-28.75-40.17-26.49-18.56,2.16-33.39,20.89-31.14,40.16,2.16,18.56,15.9,27.81,42.55,33.03,59.23,11.56,82.78,30.53,88.09,76.21,5.56,47.83-24.96,83.94-71.72,89.38-45.52,5.3-82.02-22.2-90.29-68.74"/>
      <line class="cls-4" x1="-19.04" y1="513.16" x2="7.35" y2="510.09"/>
      <path class="cls-63" d="M9.75,509.81l2.48-.29c.11.84.23,1.66.36,2.48"/>
      <path class="cls-41" d="M13.59,516.92c5.79,24.06,23.65,38.17,47.04,35.45,25.7-2.99,40.32-23.5,37.28-49.56-2.24-19.27-12.22-30.41-41.54-36.77-67.89-14.53-84.66-34.29-89.02-71.76-4.69-40.33,24.81-75.96,65.5-80.7,41.95-4.88,75.61,17.06,83.44,59.77"/>
      <path class="cls-63" d="M116.71,375.83c.13.82.25,1.64.36,2.48l-2.48.29"/>
      <line class="cls-4" x1="109.79" y1="379.15" x2="83.41" y2="382.22"/>
    </g>
    <g>
      <polyline class="cls-63" points="187.78 568.33 185.3 568.61 185.01 566.13"/>
      <line class="cls-56" x1="184.43" y1="561.16" x2="159.26" y2="344.79"/>
      <polyline class="cls-63" points="158.97 342.3 158.68 339.82 156.2 340.11"/>
      <line class="cls-75" x1="151.12" y1="340.7" x2="113.02" y2="345.13"/>
      <polyline class="cls-63" points="110.48 345.43 108 345.72 107.71 343.23"/>
      <line class="cls-55" x1="107.21" y1="338.89" x2="104.43" y2="315.03"/>
      <polyline class="cls-63" points="104.18 312.86 103.89 310.38 106.37 310.09"/>
      <line class="cls-44" x1="111.47" y1="309.5" x2="241.38" y2="294.39"/>
      <polyline class="cls-63" points="243.93 294.09 246.41 293.8 246.7 296.28"/>
      <line class="cls-55" x1="247.21" y1="300.62" x2="249.98" y2="324.48"/>
      <polyline class="cls-63" points="250.24 326.65 250.52 329.14 248.04 329.43"/>
      <line class="cls-71" x1="242.67" y1="330.05" x2="202.4" y2="334.74"/>
      <polyline class="cls-63" points="199.72 335.05 197.23 335.34 197.52 337.82"/>
      <line class="cls-56" x1="198.1" y1="342.79" x2="223.27" y2="559.16"/>
      <polyline class="cls-63" points="223.56 561.65 223.85 564.13 221.37 564.42"/>
      <line class="cls-23" x1="216.57" y1="564.98" x2="190.18" y2="568.05"/>
    </g>
    <g>
      <polyline class="cls-63" points="385.19 280.17 384.9 277.69 387.39 277.4"/>
      <line class="cls-4" x1="392.18" y1="276.84" x2="418.57" y2="273.78"/>
      <polyline class="cls-63" points="420.97 273.5 423.45 273.21 423.74 275.69"/>
      <path class="cls-21" d="M424.32,280.63l20.15,173.18c6.44,55.32-28.61,93.04-78.22,98.82-49.61,5.77-92.42-23.25-98.82-78.22l-20.43-175.65"/>
      <polyline class="cls-63" points="246.7 296.28 246.41 293.8 248.9 293.51"/>
      <line class="cls-4" x1="253.69" y1="292.95" x2="280.08" y2="289.89"/>
      <polyline class="cls-63" points="282.48 289.61 284.96 289.32 285.25 291.8"/>
      <path class="cls-30" d="M285.83,296.75l19.81,170.32c3.82,32.84,25.08,53.88,56.49,50.23,31.41-3.65,47.23-29.37,43.45-61.85l-20.1-172.79"/>
    </g>
    <g>
      <polyline class="cls-63" points="485 533.75 482.52 534.04 482.23 531.56"/>
      <line class="cls-43" x1="481.66" y1="526.67" x2="452.37" y2="274.84"/>
      <polyline class="cls-63" points="452.08 272.39 451.79 269.91 454.28 269.62"/>
      <path class="cls-16" d="M459.25,269.04l84.27-9.8c79.95-9.3,136.2,48.19,144.21,117.08,9.38,80.67-35.68,138-119.2,147.72l-81.05,9.43"/>
    </g>
    <g>
      <polyline class="cls-63" points="724.72 505.87 722.23 506.15 721.95 503.67"/>
      <line class="cls-43" x1="721.38" y1="498.78" x2="692.08" y2="246.95"/>
      <polyline class="cls-63" points="691.8 244.51 691.51 242.03 693.99 241.74"/>
      <line class="cls-23" x1="698.79" y1="241.18" x2="725.18" y2="238.11"/>
      <polyline class="cls-63" points="727.57 237.83 730.06 237.54 730.35 240.02"/>
      <line class="cls-43" x1="730.92" y1="244.91" x2="760.21" y2="496.74"/>
      <polyline class="cls-63" points="760.49 499.19 760.78 501.67 758.3 501.96"/>
      <line class="cls-23" x1="753.5" y1="502.52" x2="727.12" y2="505.59"/>
    </g>
    <g>
      <path class="cls-9" d="M912.52,489.08c-73.17,8.51-142.59-47.08-150.89-118.47-9.43-81.02,45.83-147.14,120.07-155.78,78.52-9.13,145.67,45.64,154.23,119.17,9.3,79.95-45.6,146.03-123.41,155.08Z"/>
      <path class="cls-50" d="M997.67,340.99c-6.35-54.61-53.32-97.62-109-91.15-71.39,8.3-93.51,73.1-88.95,112.36,6.19,53.18,50.51,98.31,110.83,91.3,62.46-7.27,92.73-64.33,87.12-112.51Z"/>
    </g>
    <g>
      <polyline class="cls-63" points="58.85 885.56 56.37 885.85 56.08 883.36"/>
      <line class="cls-68" x1="55.5" y1="878.36" x2="30.17" y2="660.61"/>
      <polyline class="cls-63" points="29.88 658.11 29.59 655.63 27.11 655.92"/>
      <line class="cls-60" x1="22.26" y1="656.48" x2="-4.41" y2="659.58"/>
      <polyline class="cls-13" points="-4.35 654.57 24.75 621.82 57.81 617.98"/>
      <polyline class="cls-63" points="60.28 617.69 62.77 617.4 63.06 619.88"/>
      <line class="cls-43" x1="63.62" y1="624.77" x2="92.92" y2="876.6"/>
      <polyline class="cls-63" points="93.2 879.05 93.49 881.53 91.01 881.82"/>
      <line class="cls-15" x1="86.41" y1="882.35" x2="61.15" y2="885.29"/>
    </g>
    <g>
      <polyline class="cls-63" points="178.79 744.99 176.31 745.28 176.02 742.8"/>
      <line class="cls-15" x1="175.49" y1="738.2" x2="172.55" y2="712.94"/>
      <polyline class="cls-63" points="172.28 710.64 171.99 708.16 174.48 707.87"/>
      <path class="cls-40" d="M179.37,707.3l4.76-.55c20.7-2.41,37.93-15.99,34.99-41.33-2.33-19.99-19.58-34.62-39.57-32.3-18.54,2.16-29.55,15.58-30.88,36.27"/>
      <path class="cls-63" d="M148.55,671.85c-.02.82-.03,1.66-.02,2.5l-2.48.29"/>
      <line class="cls-62" x1="141.45" y1="675.17" x2="116.18" y2="678.11"/>
      <path class="cls-63" d="M113.89,678.38l-2.48.29c-.09-.78-.16-1.61-.21-2.49"/>
      <path class="cls-42" d="M111.11,671.2c.24-10.72,2.99-25.36,9.95-37.07,10.58-17.87,31.7-32.27,55.97-35.09,41.05-4.77,74.56,22.08,79.54,64.91,2.46,21.17-2.2,34.47-15.08,50.39"/>
      <path class="cls-63" d="M239.9,716.27c-.53.63-1.07,1.26-1.62,1.9.75.37,1.5.74,2.23,1.13"/>
      <path class="cls-10" d="M244.82,721.73c20.76,12.52,33.88,33.01,36.78,57.96,5.69,48.9-25.58,87.99-75.91,93.84-44.76,5.21-85.75-23.69-94.15-67.97"/>
      <path class="cls-63" d="M111.12,803.13c-.13-.82-.25-1.64-.36-2.47l2.48-.29"/>
      <line class="cls-15" x1="117.84" y1="799.83" x2="143.1" y2="796.89"/>
      <path class="cls-63" d="M145.4,796.63l2.48-.29c.15.83.31,1.65.48,2.46"/>
      <path class="cls-66" d="M149.6,803.73c7.41,25.36,28.08,38.7,53.23,35.78,26.41-3.07,44.86-28.01,41.83-54.06-2.78-23.91-22.66-45.48-56.21-41.58l-7.12.83"/>
    </g>
    <g>
      <polyline class="cls-63" points="314.31 855.84 311.83 856.13 311.54 853.65"/>
      <line class="cls-52" x1="310.9" y1="848.14" x2="307.37" y2="817.82"/>
      <polyline class="cls-63" points="307.05 815.07 306.76 812.59 309.25 812.3"/>
      <line class="cls-15" x1="313.84" y1="811.76" x2="339.1" y2="808.82"/>
      <polyline class="cls-63" points="341.4 808.56 343.88 808.27 344.17 810.75"/>
      <line class="cls-52" x1="344.81" y1="816.26" x2="348.34" y2="846.57"/>
      <polyline class="cls-63" points="348.66 849.33 348.95 851.81 346.46 852.1"/>
      <line class="cls-15" x1="341.87" y1="852.64" x2="316.61" y2="855.58"/>
    </g>
    <path class="cls-72" d="M532.47,749.79c6.73,57.82-38.35,90.2-76.18,94.6-39.62,4.61-88.31-19.03-95.21-78.28l-11.42-98.16c-6.52-56.04,32.22-93.1,76.12-98.21,48.19-5.61,89.12,29.07,94.56,75.82l12.12,104.22Z"/>
    <g>
      <polyline class="cls-63" points="601.82 822.4 599.34 822.69 600.44 820.44"/>
      <line class="cls-34" x1="602.75" y1="815.77" x2="643.03" y2="734.01"/>
      <path class="cls-63" d="M644.18,731.68l1.1-2.24c-.87.23-1.67.44-2.42.63"/>
      <path class="cls-49" d="M638.01,731.28c-3.77.89-5.37,1.07-8.27,1.41-48.54,5.65-89.68-30.81-95.33-79.35-6.14-52.83,29.33-99.28,79.66-105.13,58.18-6.77,97.42,38.23,102.2,79.28,2.37,20.35-1.06,40.64-14.76,69.01l-56.1,116.59"/>
      <polyline class="cls-63" points="644.32 815.33 643.24 817.58 640.76 817.87"/>
      <line class="cls-27" x1="635.2" y1="818.52" x2="604.6" y2="822.07"/>
    </g>
    <g>
      <polyline class="cls-63" points="71.41 1186.33 68.93 1186.62 68.64 1184.14"/>
      <line class="cls-43" x1="68.07" y1="1179.25" x2="38.78" y2="927.42"/>
      <polyline class="cls-63" points="38.49 924.98 38.2 922.49 40.69 922.21"/>
      <line class="cls-70" x1="45.83" y1="921.61" x2="166.64" y2="907.55"/>
      <polyline class="cls-63" points="169.21 907.25 171.7 906.97 171.99 909.45"/>
      <line class="cls-14" x1="172.49" y1="913.79" x2="175.27" y2="937.65"/>
      <polyline class="cls-63" points="175.52 939.82 175.81 942.3 173.32 942.59"/>
      <line class="cls-48" x1="168.59" y1="943.14" x2="85.71" y2="952.78"/>
      <polyline class="cls-63" points="83.35 953.06 80.86 953.35 81.15 955.83"/>
      <line class="cls-73" x1="81.73" y1="960.78" x2="89.5" y2="1027.63"/>
      <polyline class="cls-63" points="89.79 1030.1 90.08 1032.59 92.56 1032.3"/>
      <line class="cls-48" x1="97.3" y1="1031.75" x2="180.17" y2="1022.11"/>
      <polyline class="cls-63" points="182.54 1021.83 185.02 1021.54 185.31 1024.02"/>
      <line class="cls-55" x1="185.82" y1="1028.36" x2="188.59" y2="1052.22"/>
      <polyline class="cls-63" points="188.85 1054.39 189.13 1056.88 186.65 1057.17"/>
      <line class="cls-48" x1="181.92" y1="1057.72" x2="99.04" y2="1067.36"/>
      <polyline class="cls-63" points="96.67 1067.63 94.19 1067.92 94.48 1070.4"/>
      <line class="cls-1" x1="95.03" y1="1075.15" x2="106.91" y2="1177.28"/>
      <polyline class="cls-63" points="107.19 1179.66 107.48 1182.14 104.99 1182.43"/>
      <line class="cls-4" x1="100.2" y1="1182.99" x2="73.81" y2="1186.06"/>
    </g>
    <g>
      <polyline class="cls-63" points="374.91 1151.03 372.43 1151.32 371.28 1149.1"/>
      <line class="cls-32" x1="368.88" y1="1144.43" x2="336.45" y2="1081.47"/>
      <polyline class="cls-63" points="335.25 1079.13 334.11 1076.91 331.62 1077.2"/>
      <line class="cls-48" x1="326.89" y1="1077.75" x2="244.02" y2="1087.39"/>
      <polyline class="cls-63" points="241.65 1087.67 239.16 1087.96 238.56 1090.38"/>
      <line class="cls-32" x1="237.29" y1="1095.47" x2="220.18" y2="1164.2"/>
      <polyline class="cls-63" points="219.55 1166.75 218.95 1169.17 216.46 1169.46"/>
      <line class="cls-33" x1="211.36" y1="1170.06" x2="183.29" y2="1173.32"/>
      <polyline class="cls-63" points="180.74 1173.62 178.26 1173.91 178.87 1171.48"/>
      <line class="cls-22" x1="180.11" y1="1166.56" x2="246.6" y2="903"/>
      <polyline class="cls-63" points="247.22 900.53 247.83 898.11 250.31 897.82"/>
      <line class="cls-18" x1="254.55" y1="897.33" x2="277.85" y2="894.62"/>
      <polyline class="cls-63" points="279.97 894.37 282.45 894.08 283.6 896.3"/>
      <line class="cls-22" x1="285.94" y1="900.81" x2="411.15" y2="1142.07"/>
      <polyline class="cls-63" points="412.32 1144.33 413.47 1146.54 410.99 1146.83"/>
      <line class="cls-46" x1="405.84" y1="1147.43" x2="377.49" y2="1150.73"/>
    </g>
    <g>
      <path class="cls-63" d="M495.36,938.77l-2.48.29c-.1-.84-.21-1.66-.35-2.48"/>
      <path class="cls-57" d="M491.48,931.68c-5.13-19.07-20.76-28.75-40.17-26.49-18.56,2.16-33.39,20.89-31.14,40.16,2.16,18.56,15.9,27.82,42.55,33.04,59.23,11.56,82.78,30.53,88.09,76.21,5.56,47.83-24.96,83.94-71.72,89.38-45.52,5.3-82.02-22.2-90.29-68.74"/>
      <path class="cls-63" d="M388.39,1072.75c-.13-.82-.24-1.65-.35-2.48l2.48-.29"/>
      <line class="cls-4" x1="395.32" y1="1069.43" x2="421.7" y2="1066.36"/>
      <path class="cls-63" d="M424.1,1066.08l2.48-.29c.11.84.23,1.66.36,2.48"/>
      <path class="cls-37" d="M427.94,1073.19c5.79,24.06,23.65,38.17,47.04,35.45,25.7-2.99,40.32-23.5,37.28-49.56-2.24-19.27-12.22-30.41-41.54-36.77-67.89-14.53-84.66-34.29-89.02-71.77-4.69-40.33,24.81-75.96,65.5-80.69,41.95-4.88,75.61,17.06,83.44,59.77"/>
      <path class="cls-63" d="M531.07,932.1c.13.82.25,1.64.36,2.48l-2.48.29"/>
      <line class="cls-4" x1="524.14" y1="935.42" x2="497.76" y2="938.49"/>
    </g>
    <g>
      <polyline class="cls-63" points="726.31 1110.15 723.83 1110.44 723.54 1107.96"/>
      <line class="cls-59" x1="722.9" y1="1102.46" x2="719.38" y2="1072.19"/>
      <polyline class="cls-63" points="719.06 1069.44 718.77 1066.95 716.28 1067.24"/>
      <line class="cls-28" x1="711.34" y1="1067.82" x2="614.86" y2="1079.04"/>
      <polyline class="cls-63" points="612.39 1079.33 609.9 1079.62 610.19 1082.1"/>
      <line class="cls-59" x1="610.83" y1="1087.6" x2="614.35" y2="1117.87"/>
      <polyline class="cls-63" points="614.67 1120.62 614.96 1123.11 612.48 1123.39"/>
      <line class="cls-4" x1="607.68" y1="1123.95" x2="581.3" y2="1127.02"/>
      <polyline class="cls-63" points="578.9 1127.3 576.41 1127.59 576.13 1125.11"/>
      <line class="cls-43" x1="575.56" y1="1120.22" x2="546.26" y2="868.39"/>
      <polyline class="cls-63" points="545.98 865.94 545.69 863.46 548.17 863.17"/>
      <line class="cls-4" x1="552.97" y1="862.61" x2="579.36" y2="859.54"/>
      <polyline class="cls-63" points="581.75 859.27 584.24 858.98 584.53 861.46"/>
      <line class="cls-20" x1="585.09" y1="866.33" x2="605.22" y2="1039.36"/>
      <polyline class="cls-63" points="605.5 1041.8 605.79 1044.28 608.28 1043.99"/>
      <line class="cls-28" x1="613.22" y1="1043.42" x2="709.7" y2="1032.19"/>
      <polyline class="cls-63" points="712.17 1031.91 714.66 1031.62 714.37 1029.13"/>
      <line class="cls-20" x1="713.8" y1="1024.26" x2="693.67" y2="851.23"/>
      <polyline class="cls-63" points="693.39 848.8 693.1 846.31 695.59 846.02"/>
      <line class="cls-4" x1="700.38" y1="845.47" x2="726.77" y2="842.4"/>
      <polyline class="cls-63" points="729.17 842.12 731.65 841.83 731.94 844.31"/>
      <line class="cls-43" x1="732.51" y1="849.2" x2="761.8" y2="1101.03"/>
      <polyline class="cls-63" points="762.09 1103.47 762.38 1105.96 759.89 1106.25"/>
      <line class="cls-4" x1="755.09" y1="1106.8" x2="728.71" y2="1109.87"/>
    </g>
    <g>
      <polyline class="cls-63" points="795.27 1102.13 792.79 1102.42 792.5 1099.94"/>
      <line class="cls-43" x1="791.93" y1="1095.05" x2="762.64" y2="843.22"/>
      <polyline class="cls-63" points="762.35 840.77 762.06 838.29 764.55 838"/>
      <line class="cls-23" x1="769.35" y1="837.44" x2="795.73" y2="834.37"/>
      <polyline class="cls-63" points="798.13 834.1 800.61 833.81 800.9 836.29"/>
      <line class="cls-43" x1="801.47" y1="841.18" x2="830.77" y2="1093.01"/>
      <polyline class="cls-63" points="831.05 1095.45 831.34 1097.94 828.86 1098.22"/>
      <line class="cls-23" x1="824.06" y1="1098.78" x2="797.67" y2="1101.85"/>
    </g>
    <path class="cls-65" d="M983.08,1085.35c-73.17,8.51-142.59-47.08-150.89-118.47-9.43-81.02,45.83-147.14,120.07-155.78,78.52-9.13,145.67,45.64,154.23,119.17,9.3,79.95-45.6,146.03-123.41,155.08Z"/>
    <g>
      <line class="cls-12" x1="347.95" y1="1448.74" x2="323.46" y2="1238.24"/>
      <polyline class="cls-63" points="323.17 1235.7 322.88 1233.22 321.81 1233.34 321.16 1235.76"/>
      <line class="cls-54" x1="319.85" y1="1240.62" x2="260.19" y2="1461.92"/>
      <line class="cls-3" x1="232.09" y1="1462.83" x2="122.89" y2="1261.17"/>
      <polyline class="cls-63" points="121.69 1258.96 120.5 1256.76 119.78 1256.84 120.07 1259.33"/>
      <line class="cls-12" x1="120.66" y1="1264.4" x2="145.15" y2="1474.91"/>
      <line class="cls-67" x1="106.33" y1="1477.04" x2="77.04" y2="1225.21"/>
      <polyline class="cls-63" points="76.75 1222.76 76.46 1220.28 78.95 1219.99"/>
      <line class="cls-17" x1="84.01" y1="1219.4" x2="132.12" y2="1213.8"/>
      <polyline class="cls-63" points="134.66 1213.51 137.14 1213.22 138.31 1215.43"/>
      <line class="cls-19" x1="140.65" y1="1219.82" x2="237.58" y2="1401.98"/>
      <line class="cls-58" x1="241.83" y1="1399.16" x2="294.7" y2="1199.57"/>
      <polyline class="cls-63" points="295.33 1197.16 295.97 1194.74 298.46 1194.46"/>
      <line class="cls-17" x1="303.52" y1="1193.87" x2="351.64" y2="1188.27"/>
      <polyline class="cls-63" points="354.17 1187.97 356.65 1187.69 356.94 1190.17"/>
      <line class="cls-67" x1="357.51" y1="1195.06" x2="386.8" y2="1446.89"/>
    </g>
    <g>
      <polyline class="cls-63" points="525.45 1170.57 525.16 1168.08 527.65 1167.79"/>
      <line class="cls-4" x1="532.44" y1="1167.24" x2="558.83" y2="1164.17"/>
      <polyline class="cls-63" points="561.23 1163.89 563.71 1163.6 564 1166.08"/>
      <path class="cls-29" d="M564.57,1171.02l20.15,173.18c6.44,55.32-28.61,93.04-78.22,98.82-49.61,5.77-92.42-23.25-98.82-78.22l-20.43-175.65"/>
      <polyline class="cls-63" points="386.96 1186.68 386.67 1184.19 389.16 1183.9"/>
      <line class="cls-4" x1="393.95" y1="1183.35" x2="420.34" y2="1180.28"/>
      <polyline class="cls-63" points="422.74 1180 425.22 1179.71 425.51 1182.19"/>
      <path class="cls-31" d="M426.09,1187.14l19.81,170.32c3.82,32.84,25.08,53.88,56.49,50.22,31.41-3.65,47.23-29.37,43.45-61.85l-20.1-172.8"/>
    </g>
    <g>
      <path class="cls-63" d="M704.45,1216.69l-2.48.29c-.1-.84-.21-1.66-.35-2.48"/>
      <path class="cls-25" d="M700.56,1209.59c-5.13-19.07-20.76-28.75-40.17-26.49-18.56,2.16-33.39,20.89-31.14,40.16,2.16,18.56,15.9,27.82,42.55,33.04,59.23,11.56,82.78,30.53,88.09,76.21,5.56,47.83-24.96,83.94-71.72,89.38-45.52,5.3-82.02-22.2-90.29-68.74"/>
      <path class="cls-63" d="M597.47,1350.67c-.13-.82-.24-1.65-.35-2.48l2.48-.29"/>
      <line class="cls-4" x1="604.4" y1="1347.34" x2="630.79" y2="1344.28"/>
      <path class="cls-63" d="M633.19,1344l2.48-.29c.11.84.23,1.66.36,2.48"/>
      <path class="cls-24" d="M637.02,1351.1c5.79,24.06,23.65,38.17,47.04,35.45,25.7-2.99,40.32-23.5,37.28-49.56-2.24-19.27-12.22-30.41-41.54-36.77-67.89-14.53-84.66-34.29-89.02-71.77-4.69-40.33,24.81-75.96,65.5-80.69,41.95-4.88,75.61,17.06,83.44,59.77"/>
      <path class="cls-63" d="M740.15,1210.01c.13.82.25,1.64.36,2.48l-2.48.29"/>
      <line class="cls-4" x1="733.23" y1="1213.34" x2="706.84" y2="1216.41"/>
    </g>
    <g>
      <line class="cls-67" x1="784.43" y1="1398.16" x2="755.13" y2="1146.33"/>
      <polyline class="cls-63" points="754.85 1143.88 754.56 1141.4 757.04 1141.11"/>
      <line class="cls-23" x1="761.84" y1="1140.55" x2="788.23" y2="1137.48"/>
      <polyline class="cls-63" points="790.63 1137.2 793.11 1136.91 793.4 1139.4"/>
      <line class="cls-67" x1="793.97" y1="1144.29" x2="823.26" y2="1396.12"/>
    </g>
    <g>
      <path class="cls-11" d="M978.47,1352.01c22.74-4.42,42.45-16.56,58.72-38.15"/>
      <path class="cls-63" d="M1038.76,1311.71c.49-.67.97-1.35,1.45-2.04l2.48-.29"/>
      <line class="cls-39" x1="1047.41" y1="1308.83" x2="1082.83" y2="1304.71"/>
      <path class="cls-8" d="M1084.54,1310.95c-22.03,45.06-60.41,71.86-110.75,77.72-73.17,8.51-141.13-50.15-149.31-120.46-9.26-79.6,46.75-145.44,117.78-153.7,48.49-5.64,96.46,10.58,129,54.04"/>
      <path class="cls-63" d="M1072.74,1170.55c.49.67.97,1.35,1.45,2.04l-2.48.29"/>
      <line class="cls-2" x1="1067.1" y1="1173.42" x2="1032.57" y2="1177.43"/>
      <path class="cls-63" d="M1030.27,1177.7l-2.48.29c-.62-.57-1.23-1.13-1.85-1.68"/>
      <path class="cls-6" d="M1022.3,1173.17c-19.99-16.74-41.84-25.9-68.21-24.12"/>
      <path class="cls-63" d="M951.71,1149.25c-.82.08-1.65.16-2.49.26l.26,2.49"/>
      <line class="cls-74" x1="950.03" y1="1157.09" x2="970.22" y2="1348.17"/>
    </g>
  </g>
  <g>
    <g>
      <circle class="cls-77" cx="777.19" cy="538.83" r="119.59"/>
      <path class="cls-78" d="M777.19,659.94c-66.78,0-121.12-54.33-121.12-121.12s54.33-121.12,121.12-121.12,121.12,54.33,121.12,121.12-54.33,121.12-121.12,121.12ZM777.19,420.77c-65.1,0-118.06,52.96-118.06,118.06s52.96,118.06,118.06,118.06,118.06-52.96,118.06-118.06-52.96-118.06-118.06-118.06Z"/>
    </g>
    <g>
      <circle class="cls-77" cx="288.55" cy="447.99" r="119.59"/>
      <path class="cls-78" d="M288.55,569.11c-66.78,0-121.12-54.33-121.12-121.12s54.33-121.12,121.12-121.12,121.12,54.33,121.12,121.12-54.33,121.12-121.12,121.12ZM288.55,329.93c-65.1,0-118.06,52.96-118.06,118.06s52.96,118.06,118.06,118.06,118.06-52.96,118.06-118.06-52.96-118.06-118.06-118.06Z"/>
    </g>
    <g>
      <circle class="cls-81" cx="921.15" cy="550.57" r="32.37"/>
      <path class="cls-78" d="M921.15,584.47c-18.69,0-33.9-15.21-33.9-33.9s15.21-33.9,33.9-33.9,33.9,15.21,33.9,33.9-15.21,33.9-33.9,33.9ZM921.15,519.72c-17.01,0-30.84,13.84-30.84,30.85s13.84,30.85,30.84,30.85,30.85-13.84,30.85-30.85-13.84-30.85-30.85-30.85Z"/>
    </g>
    <g>
      <circle class="cls-81" cx="902.91" cy="582.94" r="32.37"/>
      <path class="cls-78" d="M902.91,616.85c-18.69,0-33.9-15.21-33.9-33.9s15.21-33.9,33.9-33.9,33.9,15.21,33.9,33.9-15.21,33.9-33.9,33.9ZM902.91,552.1c-17.01,0-30.85,13.84-30.85,30.85s13.84,30.84,30.85,30.84,30.85-13.84,30.85-30.84-13.84-30.85-30.85-30.85Z"/>
    </g>
    <g>
      <circle class="cls-81" cx="947.95" cy="521.52" r="32.37"/>
      <path class="cls-78" d="M947.95,555.42c-18.69,0-33.9-15.21-33.9-33.9s15.21-33.9,33.9-33.9,33.9,15.21,33.9,33.9-15.21,33.9-33.9,33.9ZM947.95,490.67c-17.01,0-30.85,13.84-30.85,30.85s13.84,30.84,30.85,30.84,30.85-13.84,30.85-30.84-13.84-30.85-30.85-30.85Z"/>
    </g>
    <g>
      <circle class="cls-81" cx="921.15" cy="495.35" r="22.84"/>
      <path class="cls-78" d="M921.15,519.72c-13.44,0-24.37-10.93-24.37-24.37s10.93-24.37,24.37-24.37,24.37,10.93,24.37,24.37-10.93,24.37-24.37,24.37ZM921.15,474.04c-11.75,0-21.31,9.56-21.31,21.31s9.56,21.31,21.31,21.31,21.31-9.56,21.31-21.31-9.56-21.31-21.31-21.31Z"/>
    </g>
    <g>
      <circle class="cls-81" cx="911.61" cy="515.42" r="22.84"/>
      <path class="cls-78" d="M911.61,539.79c-13.44,0-24.37-10.93-24.37-24.37s10.93-24.37,24.37-24.37,24.37,10.93,24.37,24.37-10.93,24.37-24.37,24.37ZM911.61,494.1c-11.75,0-21.31,9.56-21.31,21.31s9.56,21.31,21.31,21.31,21.31-9.56,21.31-21.31-9.56-21.31-21.31-21.31Z"/>
    </g>
    <g>
      <circle class="cls-81" cx="898.3" cy="520.22" r="22.84"/>
      <path class="cls-78" d="M898.3,544.59c-13.44,0-24.37-10.93-24.37-24.37s10.93-24.37,24.37-24.37,24.37,10.93,24.37,24.37-10.93,24.37-24.37,24.37ZM898.3,498.91c-11.75,0-21.31,9.56-21.31,21.31s9.56,21.31,21.31,21.31,21.31-9.56,21.31-21.31-9.56-21.31-21.31-21.31Z"/>
    </g>
    <g>
      <circle class="cls-81" cx="921.15" cy="472.51" r="22.84"/>
      <path class="cls-78" d="M921.15,496.88c-13.44,0-24.37-10.93-24.37-24.37s10.93-24.37,24.37-24.37,24.37,10.93,24.37,24.37-10.93,24.37-24.37,24.37ZM921.15,451.2c-11.75,0-21.31,9.56-21.31,21.31s9.56,21.31,21.31,21.31,21.31-9.56,21.31-21.31-9.56-21.31-21.31-21.31Z"/>
    </g>
    <g>
      <circle class="cls-81" cx="898.3" cy="457.38" r="22.84"/>
      <path class="cls-78" d="M898.3,481.76c-13.44,0-24.37-10.93-24.37-24.37s10.93-24.37,24.37-24.37,24.37,10.93,24.37,24.37-10.93,24.37-24.37,24.37ZM898.3,436.07c-11.75,0-21.31,9.56-21.31,21.31s9.56,21.31,21.31,21.31,21.31-9.56,21.31-21.31-9.56-21.31-21.31-21.31Z"/>
    </g>
    <g>
      <circle class="cls-81" cx="726.37" cy="434.54" r="22.84"/>
      <path class="cls-78" d="M726.37,458.91c-13.44,0-24.37-10.93-24.37-24.37s10.93-24.37,24.37-24.37,24.37,10.93,24.37,24.37-10.93,24.37-24.37,24.37ZM726.37,413.23c-11.75,0-21.31,9.56-21.31,21.31s9.56,21.31,21.31,21.31,21.31-9.56,21.31-21.31-9.56-21.31-21.31-21.31Z"/>
    </g>
    <g>
      <circle class="cls-81" cx="769.22" cy="434.54" r="22.84"/>
      <path class="cls-78" d="M769.22,458.91c-13.44,0-24.37-10.93-24.37-24.37s10.93-24.37,24.37-24.37,24.37,10.93,24.37,24.37-10.93,24.37-24.37,24.37ZM769.22,413.23c-11.75,0-21.31,9.56-21.31,21.31s9.56,21.31,21.31,21.31,21.31-9.56,21.31-21.31-9.56-21.31-21.31-21.31Z"/>
    </g>
    <g>
      <circle class="cls-81" cx="792.06" cy="449.67" r="22.84"/>
      <path class="cls-78" d="M792.06,474.04c-13.44,0-24.37-10.93-24.37-24.37s10.93-24.37,24.37-24.37,24.37,10.93,24.37,24.37-10.93,24.37-24.37,24.37ZM792.06,428.35c-11.75,0-21.31,9.56-21.31,21.31s9.56,21.31,21.31,21.31,21.31-9.56,21.31-21.31-9.56-21.31-21.31-21.31Z"/>
    </g>
    <g>
      <circle class="cls-81" cx="819.7" cy="457.38" r="22.84"/>
      <path class="cls-78" d="M819.7,481.76c-13.44,0-24.37-10.93-24.37-24.37s10.93-24.37,24.37-24.37,24.37,10.93,24.37,24.37-10.93,24.37-24.37,24.37ZM819.7,436.07c-11.75,0-21.31,9.56-21.31,21.31s9.56,21.31,21.31,21.31,21.31-9.56,21.31-21.31-9.56-21.31-21.31-21.31Z"/>
    </g>
    <g>
      <circle class="cls-81" cx="845.18" cy="472.51" r="22.84"/>
      <path class="cls-78" d="M845.18,496.88c-13.44,0-24.37-10.93-24.37-24.37s10.93-24.37,24.37-24.37,24.37,10.93,24.37,24.37-10.93,24.37-24.37,24.37ZM845.18,451.2c-11.75,0-21.31,9.56-21.31,21.31s9.56,21.31,21.31,21.31,21.31-9.56,21.31-21.31-9.56-21.31-21.31-21.31Z"/>
    </g>
    <g>
      <circle class="cls-81" cx="861.37" cy="485.82" r="22.84"/>
      <path class="cls-78" d="M861.37,510.19c-13.44,0-24.37-10.93-24.37-24.37s10.93-24.37,24.37-24.37,24.37,10.93,24.37,24.37-10.93,24.37-24.37,24.37ZM861.37,464.51c-11.75,0-21.31,9.56-21.31,21.31s9.56,21.31,21.31,21.31,21.31-9.56,21.31-21.31-9.56-21.31-21.31-21.31Z"/>
    </g>
    <g>
      <circle class="cls-81" cx="845.18" cy="447.18" r="22.84"/>
      <path class="cls-78" d="M845.18,471.55c-13.44,0-24.37-10.93-24.37-24.37s10.93-24.37,24.37-24.37,24.37,10.93,24.37,24.37-10.93,24.37-24.37,24.37ZM845.18,425.86c-11.75,0-21.31,9.56-21.31,21.31s9.56,21.31,21.31,21.31,21.31-9.56,21.31-21.31-9.56-21.31-21.31-21.31Z"/>
    </g>
    <g>
      <circle class="cls-81" cx="821.32" cy="434.54" r="22.84"/>
      <path class="cls-78" d="M821.32,458.91c-13.44,0-24.37-10.93-24.37-24.37s10.93-24.37,24.37-24.37,24.37,10.93,24.37,24.37-10.93,24.37-24.37,24.37ZM821.32,413.23c-11.75,0-21.31,9.56-21.31,21.31s9.56,21.31,21.31,21.31,21.31-9.56,21.31-21.31-9.56-21.31-21.31-21.31Z"/>
    </g>
    <g>
      <circle class="cls-81" cx="798.1" cy="424.34" r="22.84"/>
      <path class="cls-78" d="M798.1,448.71c-13.44,0-24.37-10.93-24.37-24.37s10.93-24.37,24.37-24.37,24.37,10.93,24.37,24.37-10.93,24.37-24.37,24.37ZM798.1,403.02c-11.75,0-21.31,9.56-21.31,21.31s9.56,21.31,21.31,21.31,21.31-9.56,21.31-21.31-9.56-21.31-21.31-21.31Z"/>
    </g>
    <g>
      <circle class="cls-81" cx="736.23" cy="409.35" r="22.84"/>
      <path class="cls-78" d="M736.23,433.72c-13.44,0-24.37-10.93-24.37-24.37s10.93-24.37,24.37-24.37,24.37,10.93,24.37,24.37-10.93,24.37-24.37,24.37ZM736.23,388.03c-11.75,0-21.31,9.56-21.31,21.31s9.56,21.31,21.31,21.31,21.31-9.56,21.31-21.31-9.56-21.31-21.31-21.31Z"/>
    </g>
    <g>
      <circle class="cls-81" cx="709.05" cy="392.9" r="22.84"/>
      <path class="cls-78" d="M709.05,417.27c-13.44,0-24.37-10.93-24.37-24.37s10.93-24.37,24.37-24.37,24.37,10.93,24.37,24.37-10.93,24.37-24.37,24.37ZM709.05,371.59c-11.75,0-21.31,9.56-21.31,21.31s9.56,21.31,21.31,21.31,21.31-9.56,21.31-21.31-9.56-21.31-21.31-21.31Z"/>
    </g>
    <g>
      <circle class="cls-81" cx="752.42" cy="392.9" r="22.84"/>
      <path class="cls-78" d="M752.42,417.27c-13.44,0-24.37-10.93-24.37-24.37s10.93-24.37,24.37-24.37,24.37,10.93,24.37,24.37-10.93,24.37-24.37,24.37ZM752.42,371.59c-11.75,0-21.31,9.56-21.31,21.31s9.56,21.31,21.31,21.31,21.31-9.56,21.31-21.31-9.56-21.31-21.31-21.31Z"/>
    </g>
    <g>
      <circle class="cls-81" cx="775.26" cy="405.49" r="22.84"/>
      <path class="cls-78" d="M775.26,429.86c-13.44,0-24.37-10.93-24.37-24.37s10.93-24.37,24.37-24.37,24.37,10.93,24.37,24.37-10.93,24.37-24.37,24.37ZM775.26,384.18c-11.75,0-21.31,9.56-21.31,21.31s9.56,21.31,21.31,21.31,21.31-9.56,21.31-21.31-9.56-21.31-21.31-21.31Z"/>
    </g>
    <g>
      <circle class="cls-81" cx="814.9" cy="396.4" r="22.84"/>
      <path class="cls-78" d="M814.9,420.77c-13.44,0-24.37-10.93-24.37-24.37s10.93-24.37,24.37-24.37,24.37,10.93,24.37,24.37-10.93,24.37-24.37,24.37ZM814.9,375.08c-11.75,0-21.31,9.56-21.31,21.31s9.56,21.31,21.31,21.31,21.31-9.56,21.31-21.31-9.56-21.31-21.31-21.31Z"/>
    </g>
    <g>
      <circle class="cls-81" cx="871.23" cy="422.56" r="22.84"/>
      <path class="cls-78" d="M871.23,446.93c-13.44,0-24.37-10.93-24.37-24.37s10.93-24.37,24.37-24.37,24.37,10.93,24.37,24.37-10.93,24.37-24.37,24.37ZM871.23,401.25c-11.75,0-21.31,9.56-21.31,21.31s9.56,21.31,21.31,21.31,21.31-9.56,21.31-21.31-9.56-21.31-21.31-21.31Z"/>
    </g>
    <g>
      <circle class="cls-81" cx="792.06" cy="388.86" r="22.84"/>
      <path class="cls-78" d="M792.06,413.23c-13.44,0-24.37-10.93-24.37-24.37s10.93-24.37,24.37-24.37,24.37,10.93,24.37,24.37-10.93,24.37-24.37,24.37ZM792.06,367.54c-11.75,0-21.31,9.56-21.31,21.31s9.56,21.31,21.31,21.31,21.31-9.56,21.31-21.31-9.56-21.31-21.31-21.31Z"/>
    </g>
    <g>
      <circle class="cls-81" cx="895.87" cy="492.58" r="22.84"/>
      <path class="cls-78" d="M895.87,516.95c-13.44,0-24.37-10.93-24.37-24.37s10.93-24.37,24.37-24.37,24.37,10.93,24.37,24.37-10.93,24.37-24.37,24.37ZM895.87,471.27c-11.75,0-21.31,9.56-21.31,21.31s9.56,21.31,21.31,21.31,21.31-9.56,21.31-21.31-9.56-21.31-21.31-21.31Z"/>
    </g>
    <g>
      <circle class="cls-81" cx="880.06" cy="462.98" r="22.84"/>
      <path class="cls-78" d="M880.06,487.35c-13.44,0-24.37-10.93-24.37-24.37s10.93-24.37,24.37-24.37,24.37,10.93,24.37,24.37-10.93,24.37-24.37,24.37ZM880.06,441.67c-11.75,0-21.31,9.56-21.31,21.31s9.56,21.31,21.31,21.31,21.31-9.56,21.31-21.31-9.56-21.31-21.31-21.31Z"/>
    </g>
    <g>
      <circle class="cls-81" cx="921.15" cy="442.08" r="22.84"/>
      <path class="cls-78" d="M921.15,466.45c-13.44,0-24.37-10.93-24.37-24.37s10.93-24.37,24.37-24.37,24.37,10.93,24.37,24.37-10.93,24.37-24.37,24.37ZM921.15,420.77c-11.75,0-21.31,9.56-21.31,21.31s9.56,21.31,21.31,21.31,21.31-9.56,21.31-21.31-9.56-21.31-21.31-21.31Z"/>
    </g>
    <g>
      <circle class="cls-81" cx="921.15" cy="419.24" r="22.84"/>
      <path class="cls-78" d="M921.15,443.61c-13.44,0-24.37-10.93-24.37-24.37s10.93-24.37,24.37-24.37,24.37,10.93,24.37,24.37-10.93,24.37-24.37,24.37ZM921.15,397.92c-11.75,0-21.31,9.56-21.31,21.31s9.56,21.31,21.31,21.31,21.31-9.56,21.31-21.31-9.56-21.31-21.31-21.31Z"/>
    </g>
    <g>
      <circle class="cls-81" cx="907.84" cy="396.4" r="22.84"/>
      <path class="cls-78" d="M907.84,420.77c-13.44,0-24.37-10.93-24.37-24.37s10.93-24.37,24.37-24.37,24.37,10.93,24.37,24.37-10.93,24.37-24.37,24.37ZM907.84,375.08c-11.75,0-21.31,9.56-21.31,21.31s9.56,21.31,21.31,21.31,21.31-9.56,21.31-21.31-9.56-21.31-21.31-21.31Z"/>
    </g>
    <g>
      <circle class="cls-81" cx="911.61" cy="376.88" r="22.84"/>
      <path class="cls-78" d="M911.61,401.25c-13.44,0-24.37-10.93-24.37-24.37s10.93-24.37,24.37-24.37,24.37,10.93,24.37,24.37-10.93,24.37-24.37,24.37ZM911.61,355.56c-11.75,0-21.31,9.56-21.31,21.31s9.56,21.31,21.31,21.31,21.31-9.56,21.31-21.31-9.56-21.31-21.31-21.31Z"/>
    </g>
    <g>
      <circle class="cls-81" cx="938.7" cy="399.72" r="22.84"/>
      <path class="cls-78" d="M938.7,424.09c-13.44,0-24.37-10.93-24.37-24.37s10.93-24.37,24.37-24.37,24.37,10.93,24.37,24.37-10.93,24.37-24.37,24.37ZM938.7,378.4c-11.75,0-21.31,9.56-21.31,21.31s9.56,21.31,21.31,21.31,21.31-9.56,21.31-21.31-9.56-21.31-21.31-21.31Z"/>
    </g>
    <g>
      <circle class="cls-81" cx="940.87" cy="424.41" r="22.84"/>
      <path class="cls-78" d="M940.87,448.79c-13.44,0-24.37-10.93-24.37-24.37s10.93-24.37,24.37-24.37,24.37,10.93,24.37,24.37-10.93,24.37-24.37,24.37ZM940.87,403.1c-11.75,0-21.31,9.56-21.31,21.31s9.56,21.31,21.31,21.31,21.31-9.56,21.31-21.31-9.56-21.31-21.31-21.31Z"/>
    </g>
    <g>
      <circle class="cls-81" cx="873.43" cy="399.72" r="22.84"/>
      <path class="cls-78" d="M873.42,424.09c-13.44,0-24.37-10.93-24.37-24.37s10.93-24.37,24.37-24.37,24.37,10.93,24.37,24.37-10.93,24.37-24.37,24.37ZM873.42,378.4c-11.75,0-21.31,9.56-21.31,21.31s9.56,21.31,21.31,21.31,21.31-9.56,21.31-21.31-9.56-21.31-21.31-21.31Z"/>
    </g>
    <g>
      <circle class="cls-81" cx="655.8" cy="457.38" r="22.84"/>
      <path class="cls-78" d="M655.8,481.76c-13.44,0-24.37-10.93-24.37-24.37s10.93-24.37,24.37-24.37,24.37,10.93,24.37,24.37-10.93,24.37-24.37,24.37ZM655.8,436.07c-11.75,0-21.31,9.56-21.31,21.31s9.56,21.31,21.31,21.31,21.31-9.56,21.31-21.31-9.56-21.31-21.31-21.31Z"/>
    </g>
    <g>
      <circle class="cls-81" cx="647.83" cy="442.08" r="22.84"/>
      <path class="cls-78" d="M647.83,466.45c-13.44,0-24.37-10.93-24.37-24.37s10.93-24.37,24.37-24.37,24.37,10.93,24.37,24.37-10.93,24.37-24.37,24.37ZM647.83,420.77c-11.75,0-21.31,9.56-21.31,21.31s9.56,21.31,21.31,21.31,21.31-9.56,21.31-21.31-9.56-21.31-21.31-21.31Z"/>
    </g>
    <g>
      <circle class="cls-81" cx="640.52" cy="492.57" r="22.84"/>
      <path class="cls-78" d="M640.52,516.94c-13.44,0-24.37-10.93-24.37-24.37s10.93-24.37,24.37-24.37,24.37,10.93,24.37,24.37-10.93,24.37-24.37,24.37ZM640.52,471.26c-11.75,0-21.31,9.56-21.31,21.31s9.56,21.31,21.31,21.31,21.31-9.56,21.31-21.31-9.56-21.31-21.31-21.31Z"/>
    </g>
    <g>
      <circle class="cls-81" cx="647.83" cy="515.42" r="22.84"/>
      <path class="cls-78" d="M647.83,539.79c-13.44,0-24.37-10.93-24.37-24.37s10.93-24.37,24.37-24.37,24.37,10.93,24.37,24.37-10.93,24.37-24.37,24.37ZM647.83,494.1c-11.75,0-21.31,9.56-21.31,21.31s9.56,21.31,21.31,21.31,21.31-9.56,21.31-21.31-9.56-21.31-21.31-21.31Z"/>
    </g>
    <g>
      <circle class="cls-81" cx="673.27" cy="515.4" r="22.84"/>
      <path class="cls-78" d="M673.27,539.77c-13.44,0-24.37-10.93-24.37-24.37s10.93-24.37,24.37-24.37,24.37,10.93,24.37,24.37-10.93,24.37-24.37,24.37ZM673.27,494.09c-11.75,0-21.31,9.56-21.31,21.31s9.56,21.31,21.31,21.31,21.31-9.56,21.31-21.31-9.56-21.31-21.31-21.31Z"/>
    </g>
    <g>
      <circle class="cls-81" cx="686.21" cy="472.51" r="22.84"/>
      <path class="cls-78" d="M686.21,496.88c-13.44,0-24.37-10.93-24.37-24.37s10.93-24.37,24.37-24.37,24.37,10.93,24.37,24.37-10.93,24.37-24.37,24.37ZM686.21,451.2c-11.75,0-21.31,9.56-21.31,21.31s9.56,21.31,21.31,21.31,21.31-9.56,21.31-21.31-9.56-21.31-21.31-21.31Z"/>
    </g>
    <g>
      <circle class="cls-81" cx="667.7" cy="550.57" r="22.84"/>
      <path class="cls-78" d="M667.7,574.94c-13.44,0-24.37-10.93-24.37-24.37s10.93-24.37,24.37-24.37,24.37,10.93,24.37,24.37-10.93,24.37-24.37,24.37ZM667.7,529.26c-11.75,0-21.31,9.56-21.31,21.31s9.56,21.31,21.31,21.31,21.31-9.56,21.31-21.31-9.56-21.31-21.31-21.31Z"/>
    </g>
    <g>
      <circle class="cls-81" cx="632.96" cy="525.91" r="22.84"/>
      <path class="cls-78" d="M632.96,550.28c-13.44,0-24.37-10.93-24.37-24.37s10.93-24.37,24.37-24.37,24.37,10.93,24.37,24.37-10.93,24.37-24.37,24.37ZM632.96,504.6c-11.75,0-21.31,9.56-21.31,21.31s9.56,21.31,21.31,21.31,21.31-9.56,21.31-21.31-9.56-21.31-21.31-21.31Z"/>
    </g>
    <g>
      <circle class="cls-81" cx="650.43" cy="550.57" r="22.84"/>
      <path class="cls-78" d="M650.43,574.94c-13.44,0-24.37-10.93-24.37-24.37s10.93-24.37,24.37-24.37,24.37,10.93,24.37,24.37-10.93,24.37-24.37,24.37ZM650.43,529.26c-11.75,0-21.31,9.56-21.31,21.31s9.56,21.31,21.31,21.31,21.31-9.56,21.31-21.31-9.56-21.31-21.31-21.31Z"/>
    </g>
    <g>
      <circle class="cls-81" cx="655.8" cy="573.41" r="22.84"/>
      <path class="cls-78" d="M655.8,597.78c-13.44,0-24.37-10.93-24.37-24.37s10.93-24.37,24.37-24.37,24.37,10.93,24.37,24.37-10.93,24.37-24.37,24.37ZM655.8,552.1c-11.75,0-21.31,9.56-21.31,21.31s9.56,21.31,21.31,21.31,21.31-9.56,21.31-21.31-9.56-21.31-21.31-21.31Z"/>
    </g>
    <g>
      <circle class="cls-81" cx="623.7" cy="543.07" r="22.84"/>
      <path class="cls-78" d="M623.7,567.44c-13.44,0-24.37-10.93-24.37-24.37s10.93-24.37,24.37-24.37,24.37,10.93,24.37,24.37-10.93,24.37-24.37,24.37ZM623.7,521.75c-11.75,0-21.31,9.56-21.31,21.31s9.56,21.31,21.31,21.31,21.31-9.56,21.31-21.31-9.56-21.31-21.31-21.31Z"/>
    </g>
    <g>
      <circle class="cls-81" cx="602.15" cy="508.67" r="22.84"/>
      <path class="cls-78" d="M602.15,533.04c-13.44,0-24.37-10.93-24.37-24.37s10.93-24.37,24.37-24.37,24.37,10.93,24.37,24.37-10.93,24.37-24.37,24.37ZM602.15,487.35c-11.75,0-21.31,9.56-21.31,21.31s9.56,21.31,21.31,21.31,21.31-9.56,21.31-21.31-9.56-21.31-21.31-21.31Z"/>
    </g>
    <g>
      <circle class="cls-81" cx="673.27" cy="602.15" r="22.84"/>
      <path class="cls-78" d="M673.27,626.52c-13.44,0-24.37-10.93-24.37-24.37s10.93-24.37,24.37-24.37,24.37,10.93,24.37,24.37-10.93,24.37-24.37,24.37ZM673.27,580.84c-11.75,0-21.31,9.56-21.31,21.31s9.56,21.31,21.31,21.31,21.31-9.56,21.31-21.31-9.56-21.31-21.31-21.31Z"/>
    </g>
    <g>
      <circle class="cls-81" cx="632.96" cy="579.31" r="22.84"/>
      <path class="cls-78" d="M632.96,603.68c-13.44,0-24.37-10.93-24.37-24.37s10.93-24.37,24.37-24.37,24.37,10.93,24.37,24.37-10.93,24.37-24.37,24.37ZM632.96,558c-11.75,0-21.31,9.56-21.31,21.31s9.56,21.31,21.31,21.31,21.31-9.56,21.31-21.31-9.56-21.31-21.31-21.31Z"/>
    </g>
    <g>
      <circle class="cls-81" cx="627.59" cy="442.08" r="22.84"/>
      <path class="cls-78" d="M627.59,466.45c-13.44,0-24.37-10.93-24.37-24.37s10.93-24.37,24.37-24.37,24.37,10.93,24.37,24.37-10.93,24.37-24.37,24.37ZM627.59,420.77c-11.75,0-21.31,9.56-21.31,21.31s9.56,21.31,21.31,21.31,21.31-9.56,21.31-21.31-9.56-21.31-21.31-21.31Z"/>
    </g>
    <g>
      <circle class="cls-81" cx="632.96" cy="472.51" r="22.84"/>
      <path class="cls-78" d="M632.96,496.88c-13.44,0-24.37-10.93-24.37-24.37s10.93-24.37,24.37-24.37,24.37,10.93,24.37,24.37-10.93,24.37-24.37,24.37ZM632.96,451.2c-11.75,0-21.31,9.56-21.31,21.31s9.56,21.31,21.31,21.31,21.31-9.56,21.31-21.31-9.56-21.31-21.31-21.31Z"/>
    </g>
    <g>
      <circle class="cls-81" cx="657.6" cy="480.23" r="22.84"/>
      <path class="cls-78" d="M657.6,504.6c-13.44,0-24.37-10.93-24.37-24.37s10.93-24.37,24.37-24.37,24.37,10.93,24.37,24.37-10.93,24.37-24.37,24.37ZM657.6,458.91c-11.75,0-21.31,9.56-21.31,21.31s9.56,21.31,21.31,21.31,21.31-9.56,21.31-21.31-9.56-21.31-21.31-21.31Z"/>
    </g>
    <g>
      <circle class="cls-81" cx="604.75" cy="462.98" r="22.84"/>
      <path class="cls-78" d="M604.75,487.35c-13.44,0-24.37-10.93-24.37-24.37s10.93-24.37,24.37-24.37,24.37,10.93,24.37,24.37-10.93,24.37-24.37,24.37ZM604.75,441.67c-11.75,0-21.31,9.56-21.31,21.31s9.56,21.31,21.31,21.31,21.31-9.56,21.31-21.31-9.56-21.31-21.31-21.31Z"/>
    </g>
    <g>
      <circle class="cls-81" cx="624.99" cy="489.14" r="22.84"/>
      <path class="cls-78" d="M624.99,513.52c-13.44,0-24.37-10.93-24.37-24.37s10.93-24.37,24.37-24.37,24.37,10.93,24.37,24.37-10.93,24.37-24.37,24.37ZM624.99,467.83c-11.75,0-21.31,9.56-21.31,21.31s9.56,21.31,21.31,21.31,21.31-9.56,21.31-21.31-9.56-21.31-21.31-21.31Z"/>
    </g>
    <g>
      <circle class="cls-81" cx="647.83" cy="409.35" r="22.84"/>
      <path class="cls-78" d="M647.83,433.72c-13.44,0-24.37-10.93-24.37-24.37s10.93-24.37,24.37-24.37,24.37,10.93,24.37,24.37-10.93,24.37-24.37,24.37ZM647.83,388.03c-11.75,0-21.31,9.56-21.31,21.31s9.56,21.31,21.31,21.31,21.31-9.56,21.31-21.31-9.56-21.31-21.31-21.31Z"/>
    </g>
    <g>
      <circle class="cls-81" cx="690.55" cy="419.24" r="22.84"/>
      <path class="cls-78" d="M690.55,443.61c-13.44,0-24.37-10.93-24.37-24.37s10.93-24.37,24.37-24.37,24.37,10.93,24.37,24.37-10.93,24.37-24.37,24.37ZM690.55,397.92c-11.75,0-21.31,9.56-21.31,21.31s9.56,21.31,21.31,21.31,21.31-9.56,21.31-21.31-9.56-21.31-21.31-21.31Z"/>
    </g>
    <g>
      <circle class="cls-81" cx="686.21" cy="449.67" r="22.84"/>
      <path class="cls-78" d="M686.21,474.04c-13.44,0-24.37-10.93-24.37-24.37s10.93-24.37,24.37-24.37,24.37,10.93,24.37,24.37-10.93,24.37-24.37,24.37ZM686.21,428.35c-11.75,0-21.31,9.56-21.31,21.31s9.56,21.31,21.31,21.31,21.31-9.56,21.31-21.31-9.56-21.31-21.31-21.31Z"/>
    </g>
    <g>
      <circle class="cls-81" cx="678.65" cy="399.72" r="22.84"/>
      <path class="cls-78" d="M678.65,424.09c-13.44,0-24.37-10.93-24.37-24.37s10.93-24.37,24.37-24.37,24.37,10.93,24.37,24.37-10.93,24.37-24.37,24.37ZM678.65,378.4c-11.75,0-21.31,9.56-21.31,21.31s9.56,21.31,21.31,21.31,21.31-9.56,21.31-21.31-9.56-21.31-21.31-21.31Z"/>
    </g>
    <g>
      <circle class="cls-81" cx="663.37" cy="384.15" r="22.84"/>
      <path class="cls-78" d="M663.37,408.53c-13.44,0-24.37-10.93-24.37-24.37s10.93-24.37,24.37-24.37,24.37,10.93,24.37,24.37-10.93,24.37-24.37,24.37ZM663.37,362.84c-11.75,0-21.31,9.56-21.31,21.31s9.56,21.31,21.31,21.31,21.31-9.56,21.31-21.31-9.56-21.31-21.31-21.31Z"/>
    </g>
    <g>
      <circle class="cls-81" cx="645.33" cy="386.51" r="22.84"/>
      <path class="cls-78" d="M645.33,410.88c-13.44,0-24.37-10.93-24.37-24.37s10.93-24.37,24.37-24.37,24.37,10.93,24.37,24.37-10.93,24.37-24.37,24.37ZM645.33,365.19c-11.75,0-21.31,9.56-21.31,21.31s9.56,21.31,21.31,21.31,21.31-9.56,21.31-21.31-9.56-21.31-21.31-21.31Z"/>
    </g>
    <g>
      <circle class="cls-81" cx="663.37" cy="356.61" r="22.84"/>
      <path class="cls-78" d="M663.37,380.98c-13.44,0-24.37-10.93-24.37-24.37s10.93-24.37,24.37-24.37,24.37,10.93,24.37,24.37-10.93,24.37-24.37,24.37ZM663.37,335.3c-11.75,0-21.31,9.56-21.31,21.31s9.56,21.31,21.31,21.31,21.31-9.56,21.31-21.31-9.56-21.31-21.31-21.31Z"/>
    </g>
    <g>
      <circle class="cls-81" cx="627.59" cy="407" r="22.84"/>
      <path class="cls-78" d="M627.59,431.37c-13.44,0-24.37-10.93-24.37-24.37s10.93-24.37,24.37-24.37,24.37,10.93,24.37,24.37-10.93,24.37-24.37,24.37ZM627.59,385.68c-11.75,0-21.31,9.56-21.31,21.31s9.56,21.31,21.31,21.31,21.31-9.56,21.31-21.31-9.56-21.31-21.31-21.31Z"/>
    </g>
    <g>
      <circle class="cls-81" cx="898.3" cy="428.33" r="22.84"/>
      <path class="cls-78" d="M898.3,452.7c-13.44,0-24.37-10.93-24.37-24.37s10.93-24.37,24.37-24.37,24.37,10.93,24.37,24.37-10.93,24.37-24.37,24.37ZM898.3,407.02c-11.75,0-21.31,9.56-21.31,21.31s9.56,21.31,21.31,21.31,21.31-9.56,21.31-21.31-9.56-21.31-21.31-21.31Z"/>
    </g>
    <g>
      <circle class="cls-81" cx="870.18" cy="415.75" r="22.84"/>
      <path class="cls-78" d="M870.18,440.12c-13.44,0-24.37-10.93-24.37-24.37s10.93-24.37,24.37-24.37,24.37,10.93,24.37,24.37-10.93,24.37-24.37,24.37ZM870.18,394.43c-11.75,0-21.31,9.56-21.31,21.31s9.56,21.31,21.31,21.31,21.31-9.56,21.31-21.31-9.56-21.31-21.31-21.31Z"/>
    </g>
    <g>
      <circle class="cls-81" cx="844.16" cy="403.98" r="22.84"/>
      <path class="cls-78" d="M844.17,428.35c-13.44,0-24.37-10.93-24.37-24.37s10.93-24.37,24.37-24.37,24.37,10.93,24.37,24.37-10.93,24.37-24.37,24.37ZM844.17,382.67c-11.75,0-21.31,9.56-21.31,21.31s9.56,21.31,21.31,21.31,21.31-9.56,21.31-21.31-9.56-21.31-21.31-21.31Z"/>
    </g>
    <g>
      <circle class="cls-81" cx="844.16" cy="403.98" r="22.84"/>
      <path class="cls-78" d="M844.17,428.35c-13.44,0-24.37-10.93-24.37-24.37s10.93-24.37,24.37-24.37,24.37,10.93,24.37,24.37-10.93,24.37-24.37,24.37ZM844.17,382.67c-11.75,0-21.31,9.56-21.31,21.31s9.56,21.31,21.31,21.31,21.31-9.56,21.31-21.31-9.56-21.31-21.31-21.31Z"/>
    </g>
    <g>
      <circle class="cls-81" cx="930.68" cy="472.51" r="22.84"/>
      <path class="cls-78" d="M930.68,496.88c-13.44,0-24.37-10.93-24.37-24.37s10.93-24.37,24.37-24.37,24.37,10.93,24.37,24.37-10.93,24.37-24.37,24.37ZM930.68,451.2c-11.75,0-21.31,9.56-21.31,21.31s9.56,21.31,21.31,21.31,21.31-9.56,21.31-21.31-9.56-21.31-21.31-21.31Z"/>
    </g>
    <g>
      <circle class="cls-81" cx="951.42" cy="480.23" r="22.84"/>
      <path class="cls-78" d="M951.43,504.6c-13.44,0-24.37-10.93-24.37-24.37s10.93-24.37,24.37-24.37,24.37,10.93,24.37,24.37-10.93,24.37-24.37,24.37ZM951.43,458.91c-11.75,0-21.31,9.56-21.31,21.31s9.56,21.31,21.31,21.31,21.31-9.56,21.31-21.31-9.56-21.31-21.31-21.31Z"/>
    </g>
    <g>
      <circle class="cls-81" cx="947.95" cy="449.67" r="22.84"/>
      <path class="cls-78" d="M947.95,474.04c-13.44,0-24.37-10.93-24.37-24.37s10.93-24.37,24.37-24.37,24.37,10.93,24.37,24.37-10.93,24.37-24.37,24.37ZM947.95,428.35c-11.75,0-21.31,9.56-21.31,21.31s9.56,21.31,21.31,21.31,21.31-9.56,21.31-21.31-9.56-21.31-21.31-21.31Z"/>
    </g>
    <g>
      <g>
        <polygon class="cls-77" points="673.27 377.39 679.85 165.81 702.21 166.51 737.67 273.5 764.5 274.34 767.79 168.55 806.55 169.75 803.26 275.54 843.33 276.79 873.62 171.84 897.47 172.58 890.9 384.15 673.27 377.39"/>
        <path class="cls-78" d="M892.38,385.73l-220.68-6.86,6.67-214.63,24.95.77,35.47,106.99,24.24.75,3.29-105.79,41.81,1.3-3.29,105.79,37.36,1.16,30.29-104.95,26.56.83-6.67,214.63ZM674.85,375.91l214.57,6.67,6.48-208.52-21.14-.66-30.29,104.95-42.79-1.33,3.29-105.79-35.7-1.11-3.29,105.79-29.42-.91-35.47-106.99-19.76-.62-6.48,208.52Z"/>
      </g>
      <g>
        <circle class="cls-77" cx="679.66" cy="171.78" r="23.86"/>
        <path class="cls-78" d="M679.67,197.16c-.26,0-.53,0-.8-.01-6.78-.21-13.07-3.05-17.71-7.99-4.64-4.94-7.09-11.4-6.87-18.17.21-6.78,3.05-13.07,7.99-17.71,4.94-4.64,11.41-7.09,18.17-6.88,6.78.21,13.07,3.05,17.71,7.99,4.64,4.94,7.09,11.4,6.87,18.17-.43,13.73-11.73,24.6-25.37,24.6ZM679.66,149.44c-12,0-21.94,9.57-22.31,21.64-.19,5.96,1.96,11.64,6.05,15.99s9.62,6.84,15.58,7.03c12.36.36,22.63-9.32,23.02-21.63h0c.19-5.96-1.96-11.64-6.05-15.99s-9.62-6.84-15.58-7.03c-.24,0-.47-.01-.7-.01Z"/>
      </g>
      <g>
        <circle class="cls-77" cx="897.29" cy="178.54" r="23.86"/>
        <path class="cls-78" d="M897.31,203.93c-.27,0-.54,0-.81-.01-6.78-.21-13.07-3.05-17.71-7.99-4.64-4.94-7.09-11.4-6.87-18.17.21-6.78,3.05-13.07,7.99-17.71,4.94-4.64,11.39-7.1,18.17-6.87,6.78.21,13.07,3.05,17.71,7.99,4.64,4.94,7.09,11.4,6.87,18.17-.21,6.78-3.05,13.07-7.99,17.71-4.75,4.46-10.88,6.89-17.37,6.89ZM897.27,156.21c-5.7,0-11.1,2.14-15.27,6.06-4.35,4.09-6.84,9.62-7.03,15.58-.19,5.96,1.96,11.64,6.05,15.99s9.62,6.84,15.58,7.03c5.95.19,11.64-1.96,15.99-6.05s6.84-9.62,7.03-15.58c.19-5.96-1.96-11.64-6.05-15.99-4.09-4.35-9.62-6.84-15.58-7.03-.24,0-.48-.01-.71-.01Z"/>
      </g>
      <g>
        <rect class="cls-77" x="784.95" y="81.26" width="11.93" height="79.04" transform="translate(4.13 -24.51) rotate(1.78)"/>
        <path class="cls-78" d="M797.13,162.03l-14.98-.47,2.55-82.05,14.98.47-2.55,82.05ZM785.3,158.61l8.87.28,2.36-75.94-8.87-.28-2.36,75.94Z"/>
      </g>
      <g>
        <rect class="cls-77" x="785.13" y="75.29" width="11.93" height="79.04" transform="translate(930.43 -672.33) rotate(91.78)"/>
        <path class="cls-78" d="M831.89,123.58l-82.05-2.55.47-14.98,82.05,2.55-.47,14.98ZM752.99,118.07l75.94,2.36.28-8.87-75.94-2.36-.28,8.87Z"/>
      </g>
    </g>
    <g>
      <circle class="cls-81" cx="841.15" cy="402.29" r="22.84"/>
      <path class="cls-78" d="M841.15,426.66c-13.44,0-24.37-10.93-24.37-24.37s10.93-24.37,24.37-24.37,24.37,10.93,24.37,24.37-10.93,24.37-24.37,24.37ZM841.15,380.98c-11.75,0-21.31,9.56-21.31,21.31s9.56,21.31,21.31,21.31,21.31-9.56,21.31-21.31-9.56-21.31-21.31-21.31Z"/>
    </g>
    <g>
      <circle class="cls-81" cx="700.12" cy="376.88" r="22.84"/>
      <path class="cls-78" d="M700.12,401.25c-13.44,0-24.37-10.93-24.37-24.37s10.93-24.37,24.37-24.37,24.37,10.93,24.37,24.37-10.93,24.37-24.37,24.37ZM700.12,355.56c-11.75,0-21.31,9.56-21.31,21.31s9.56,21.31,21.31,21.31,21.31-9.56,21.31-21.31-9.56-21.31-21.31-21.31Z"/>
    </g>
    <g>
      <circle class="cls-81" cx="682.07" cy="368.66" r="22.84"/>
      <path class="cls-78" d="M682.07,393.03c-13.44,0-24.37-10.93-24.37-24.37s10.93-24.37,24.37-24.37,24.37,10.93,24.37,24.37-10.93,24.37-24.37,24.37ZM682.07,347.35c-11.75,0-21.31,9.56-21.31,21.31s9.56,21.31,21.31,21.31,21.31-9.56,21.31-21.31-9.56-21.31-21.31-21.31Z"/>
    </g>
    <g>
      <circle class="cls-81" cx="729.57" cy="376.88" r="22.84"/>
      <path class="cls-78" d="M729.57,401.25c-13.44,0-24.37-10.93-24.37-24.37s10.93-24.37,24.37-24.37,24.37,10.93,24.37,24.37-10.93,24.37-24.37,24.37ZM729.57,355.56c-11.75,0-21.31,9.56-21.31,21.31s9.56,21.31,21.31,21.31,21.31-9.56,21.31-21.31-9.56-21.31-21.31-21.31Z"/>
    </g>
    <g>
      <circle class="cls-81" cx="761.98" cy="386.51" r="22.84"/>
      <path class="cls-78" d="M761.98,410.88c-13.44,0-24.37-10.93-24.37-24.37s10.93-24.37,24.37-24.37,24.37,10.93,24.37,24.37-10.93,24.37-24.37,24.37ZM761.98,365.19c-11.75,0-21.31,9.56-21.31,21.31s9.56,21.31,21.31,21.31,21.31-9.56,21.31-21.31-9.56-21.31-21.31-21.31Z"/>
    </g>
    <g>
      <circle class="cls-81" cx="800.03" cy="370.06" r="22.84"/>
      <path class="cls-78" d="M800.03,394.43c-13.44,0-24.37-10.93-24.37-24.37s10.93-24.37,24.37-24.37,24.37,10.93,24.37,24.37-10.93,24.37-24.37,24.37ZM800.03,348.75c-11.75,0-21.31,9.56-21.31,21.31s9.56,21.31,21.31,21.31,21.31-9.56,21.31-21.31-9.56-21.31-21.31-21.31Z"/>
    </g>
    <g>
      <circle class="cls-81" cx="818.3" cy="379.45" r="22.84"/>
      <path class="cls-78" d="M818.3,403.82c-13.44,0-24.37-10.93-24.37-24.37s10.93-24.37,24.37-24.37,24.37,10.93,24.37,24.37-10.93,24.37-24.37,24.37ZM818.3,358.14c-11.75,0-21.31,9.56-21.31,21.31s9.56,21.31,21.31,21.31,21.31-9.56,21.31-21.31-9.56-21.31-21.31-21.31Z"/>
    </g>
    <g>
      <path class="cls-81" d="M139.46,383.16h26.93c2.61,0,4.73,2.12,4.73,4.73v118.26c0,2.61-2.12,4.73-4.73,4.73h-26.93c-7,0-12.68-5.68-12.68-12.68v-102.35c0-7,5.68-12.68,12.68-12.68Z"/>
      <path class="cls-78" d="M159.08,512.4c-18.65,0-33.83-15.18-33.83-33.83v-63.11c0-18.65,15.18-33.83,33.83-33.83,7.48,0,13.57,6.09,13.57,13.57v103.63c0,7.48-6.09,13.57-13.57,13.57ZM159.08,384.69c-16.97,0-30.77,13.8-30.77,30.77v63.11c0,16.97,13.8,30.78,30.77,30.78,5.8,0,10.52-4.72,10.52-10.52v-103.63c0-5.8-4.72-10.52-10.52-10.52Z"/>
    </g>
    <g>
      <path class="cls-81" d="M418.5,383.2h26.93c2.61,0,4.73,2.12,4.73,4.73v118.26c0,2.61-2.12,4.73-4.73,4.73h-26.93c-7,0-12.68-5.68-12.68-12.68v-102.35c0-7,5.68-12.68,12.68-12.68Z" transform="translate(855.97 894.13) rotate(-180)"/>
      <path class="cls-78" d="M417.86,512.45c-7.48,0-13.57-6.09-13.57-13.57v-103.63c0-7.48,6.09-13.57,13.57-13.57,18.65,0,33.83,15.18,33.83,33.83v63.11c0,18.65-15.18,33.83-33.83,33.83ZM417.86,384.73c-5.8,0-10.52,4.72-10.52,10.52v103.63c0,5.8,4.72,10.52,10.52,10.52,16.97,0,30.77-13.8,30.77-30.77v-63.11c0-16.97-13.8-30.78-30.77-30.78Z"/>
    </g>
    <path class="cls-78" d="M415.27,366.81c-6.97-39.11-42.39-85.72-119.27-88.33-53.97-1.82-119.06,24.12-134.36,85.44l-2.96-.74c7.06-28.31,25.03-51.6,51.97-67.37,24.27-14.2,54.62-21.43,85.45-20.39,29.28,1,57.12,9.54,78.39,24.06,23.75,16.21,38.89,39.3,43.79,66.79l-3.01.54Z"/>
    <path class="cls-78" d="M426.48,361.24c-15.29-86.16-81.71-117.83-133.94-118.77-31.32-.57-62.09,8.84-86.68,26.48-26.84,19.25-44.8,46.96-51.93,80.15l-2.99-.64c7.3-33.94,25.67-62.29,53.14-81.99,25.12-18.02,56.54-27.61,88.52-27.05,53.39.96,121.28,33.31,136.9,121.3l-3.01.53Z"/>
    <g>
      <path class="cls-81" d="M181.33,463.42s22.08-68.59,22.08-69.92,21.73-22.48,21.73-22.48l11.38,24.24,25.18-39.67,55.89,63.47,13.45-42.76,14.14,33.2,17.25-27.19,10.69,15.15,18.63,67.3,11.04,8.95-4.48-101.38-34.15-55.98,3.79-16.31-32.77,14.11-6.9-12.34-19.16,6.61-35-21.16-34.84,22.92-36.57,23.8-23.46,36.15-2.07,93.28h4.14Z"/>
      <path class="cls-78" d="M404.5,477.05l-14.06-11.4-18.69-67.52-9.23-13.07-17.58,27.71-13.66-32.06-13.03,41.4-56.34-63.98-25.58,40.3-11.65-24.82c-9.26,9.06-18.96,18.87-19.84,20.39-1.17,4.76-12.48,40.15-22.05,69.88l-.34,1.06h-6.81l2.11-95.27,23.87-36.78,36.84-23.98,35.64-23.45,35.22,21.29,19.69-6.8,6.85,12.26,34.29-14.76-4.34,18.65,34.03,55.78,4.65,105.17ZM393.12,463.89l8.02,6.5-4.32-97.6-34.27-56.18,3.25-13.97-31.26,13.46-6.95-12.43-18.63,6.43-34.79-21.03-34.04,22.39-36.3,23.63-23.05,35.51-2.03,91.28h1.46c8.63-26.83,21.29-66.49,21.68-68.58-.01-.59-.01-1.77,22.18-23.38l1.54-1.5,11.11,23.67,24.79-39.04,55.44,62.97,13.88-44.12,14.63,34.33,16.92-26.66,12.24,17.49,18.5,66.83Z"/>
    </g>
    <g>
      <path class="cls-81" d="M324.89,510.38l-36.34-5.79-36.08,5.79h0c0-12.47,10.11-20.03,22.59-20.03h27.25c12.47,0,22.59,7.56,22.59,20.03h0Z"/>
      <path class="cls-78" d="M250.94,512.17v-1.79c0-12.69,9.92-21.56,24.11-21.56h27.25c14.2,0,24.11,8.87,24.11,21.56v1.79l-37.87-6.03-37.61,6.03ZM288.55,503.04l34.73,5.53c-.9-9.92-9.27-16.7-20.98-16.7h-27.25c-11.7,0-20.07,6.78-20.98,16.7l34.47-5.53Z"/>
    </g>
    <g>
      <rect class="cls-77" x="657.6" y="658.41" width="245.3" height="396.13" rx="21.48" ry="21.48"/>
      <path class="cls-78" d="M848.19,1056.08h-135.87c-31.01,0-56.24-25.23-56.24-56.24v-286.71c0-31.01,25.23-56.24,56.24-56.24h135.87c31.01,0,56.24,25.23,56.24,56.24v286.71c0,31.01-25.23,56.24-56.24,56.24ZM712.32,659.94c-29.33,0-53.19,23.86-53.19,53.19v286.71c0,29.33,23.86,53.19,53.19,53.19h135.87c29.33,0,53.19-23.86,53.19-53.19v-286.71c0-29.33-23.86-53.19-53.19-53.19h-135.87Z"/>
    </g>
    <g>
      <path class="cls-77" d="M197.92,569.15h188.28c15.74,0,28.51,12.78,28.51,28.51v419.72h-245.3v-419.72c0-15.74,12.78-28.51,28.51-28.51Z"/>
      <path class="cls-78" d="M416.24,1018.9h-248.36v-377.15c0-40.88,33.26-74.14,74.14-74.14h100.08c40.88,0,74.14,33.26,74.14,74.14v377.15ZM170.93,1015.85h242.25v-374.09c0-39.19-31.89-71.08-71.08-71.08h-100.08c-39.2,0-71.08,31.89-71.08,71.08v374.09Z"/>
    </g>
    <g>
      <path class="cls-77" d="M673.27,674.81c6.1,3.04,229.63,57.85,229.63,57.85v220.24l-245.3-3.99v-240.17l15.67-33.93Z"/>
      <path class="cls-78" d="M904.43,954.45l-248.36-4.04v-242.01l16.47-35.65,1.41.69c5.08,2.48,167.25,42.51,229.32,57.73l1.16.28v222.99ZM659.13,947.41l242.25,3.94v-217.49c-18.57-4.56-207.77-51-227.3-57.15l-14.95,32.37v238.33Z"/>
    </g>
    <g>
      <rect class="cls-77" x="882.55" y="685.66" width="50.57" height="303.62" rx="9.93" ry="9.93" transform="translate(146.49 -135.09) rotate(9.25)"/>
      <path class="cls-78" d="M887.5,989.17c-1.43,0-2.87-.12-4.33-.35-7.07-1.15-13.27-4.99-17.45-10.8-4.18-5.81-5.85-12.91-4.7-19.98l40.69-249.76c1.15-7.07,4.99-13.27,10.8-17.45,5.81-4.18,12.9-5.85,19.98-4.7,7.07,1.15,13.27,4.99,17.45,10.8,4.18,5.81,5.85,12.91,4.7,19.98l-40.69,249.76c-2.14,13.14-13.55,22.5-26.45,22.5ZM928.17,688.84c-11.43,0-21.54,8.3-23.43,19.94l-40.69,249.76c-2.11,12.93,6.7,25.16,19.63,27.27,6.26,1.02,12.55-.46,17.7-4.17s8.55-9.2,9.57-15.46l40.69-249.76c2.11-12.93-6.7-25.16-19.63-27.27-1.29-.21-2.57-.31-3.83-.31Z"/>
    </g>
    <g>
      <rect class="cls-77" x="607.67" y="677.94" width="50.57" height="303.62" rx="9.93" ry="9.93"/>
      <path class="cls-78" d="M632.96,983.09c-14.79,0-26.81-12.03-26.81-26.81v-253.05c0-14.79,12.03-26.81,26.81-26.81s26.81,12.03,26.81,26.81v253.05c0,14.79-12.03,26.81-26.81,26.81ZM632.96,679.46c-13.1,0-23.76,10.66-23.76,23.76v253.05c0,13.1,10.66,23.76,23.76,23.76s23.76-10.66,23.76-23.76v-253.05c0-13.1-10.66-23.76-23.76-23.76Z"/>
    </g>
    <g>
      <rect class="cls-77" x="137.57" y="645.88" width="50.57" height="303.62" rx="9.93" ry="9.93" transform="translate(-111.8 31.27) rotate(-8.18)"/>
      <path class="cls-78" d="M180.8,949.75c-5.75,0-11.33-1.85-16.02-5.35-5.73-4.29-9.45-10.56-10.47-17.65l-35.99-250.48c-1.02-7.09.78-14.15,5.08-19.89s10.56-9.45,17.65-10.47c14.63-2.1,28.25,8.09,30.35,22.73l35.99,250.48c2.1,14.64-8.09,28.25-22.73,30.35-1.29.19-2.59.28-3.87.28ZM144.88,648.7c-1.12,0-2.25.08-3.39.24-6.28.9-11.84,4.2-15.64,9.28s-5.4,11.34-4.5,17.62l35.99,250.48c.9,6.28,4.2,11.84,9.28,15.64,5.08,3.81,11.33,5.4,17.62,4.5,6.28-.9,11.84-4.2,15.64-9.28s5.4-11.34,4.5-17.62l-35.99-250.48c-1.7-11.83-11.89-20.38-23.5-20.38Z"/>
    </g>
    <g>
      <rect class="cls-77" x="413.93" y="645.88" width="50.57" height="303.62" rx="9.93" ry="9.93"/>
      <path class="cls-78" d="M439.22,951.03c-14.79,0-26.81-12.03-26.81-26.81v-253.05c0-14.79,12.03-26.81,26.81-26.81s26.81,12.03,26.81,26.81v253.05c0,14.79-12.03,26.81-26.81,26.81ZM439.22,647.41c-13.1,0-23.76,10.66-23.76,23.76v253.05c0,13.1,10.66,23.76,23.76,23.76s23.76-10.66,23.76-23.76v-253.05c0-13.1-10.66-23.76-23.76-23.76Z"/>
    </g>
    <g>
      <path class="cls-77" d="M221.22,571.6c22.15,51.86,106.96,52.92,132.59-1.5"/>
      <path class="cls-78" d="M286.13,612.23c-.54,0-1.09,0-1.63-.01-29.58-.54-54.36-15.88-64.68-40.02l2.81-1.2c9.83,23.02,33.56,37.65,61.92,38.16,30.11.51,56.09-14.67,67.88-39.71l2.77,1.3c-12.1,25.69-38.47,41.48-69.07,41.48Z"/>
    </g>
    <g>
      <line class="cls-77" x1="141.26" y1="825.16" x2="189.36" y2="818.25"/>
      <rect class="cls-78" x="141.01" y="820.18" width="48.59" height="3.06" transform="translate(-115.36 31.93) rotate(-8.19)"/>
    </g>
    <rect class="cls-78" x="415.16" y="820.28" width="48.59" height="3.06"/>
    <g>
      <polygon class="cls-77" points="1076.01 1022.51 1059.16 1000.73 26.85 1000.73 -35.29 1088.43 1076.01 1088.43 1076.01 1022.51"/>
      <rect class="cls-78" x="318.58" y="999.21" width="12.59" height="3.06"/>
      <rect class="cls-78" x="283.75" y="1086.9" width="12.59" height="3.06"/>
      <rect class="cls-78" x="268.24" y="999.21" width="12.59" height="3.06"/>
      <rect class="cls-78" x="293.41" y="999.21" width="12.59" height="3.06"/>
      <rect class="cls-78" x="308.92" y="1086.9" width="12.59" height="3.06"/>
      <rect class="cls-78" x="217.89" y="999.21" width="12.59" height="3.06"/>
      <rect class="cls-78" x="258.57" y="1086.9" width="12.59" height="3.06"/>
      <rect class="cls-78" x="334.09" y="1086.9" width="12.59" height="3.06"/>
      <rect class="cls-78" x="233.4" y="1086.9" width="12.59" height="3.06"/>
      <rect class="cls-78" x="243.07" y="999.21" width="12.59" height="3.06"/>
      <rect class="cls-78" x="459.95" y="1086.9" width="12.59" height="3.06"/>
      <rect class="cls-78" x="444.45" y="999.21" width="12.59" height="3.06"/>
      <rect class="cls-78" x="434.78" y="1086.9" width="12.59" height="3.06"/>
      <rect class="cls-78" x="419.28" y="999.21" width="12.59" height="3.06"/>
      <rect class="cls-78" x="469.62" y="999.21" width="12.59" height="3.06"/>
      <rect class="cls-78" x="208.23" y="1086.9" width="12.59" height="3.06"/>
      <rect class="cls-78" x="394.1" y="999.21" width="12.59" height="3.06"/>
      <rect class="cls-78" x="359.26" y="1086.9" width="12.59" height="3.06"/>
      <rect class="cls-78" x="368.93" y="999.21" width="12.59" height="3.06"/>
      <rect class="cls-78" x="343.76" y="999.21" width="12.59" height="3.06"/>
      <rect class="cls-78" x="384.44" y="1086.9" width="12.59" height="3.06"/>
      <rect class="cls-78" x="409.61" y="1086.9" width="12.59" height="3.06"/>
      <rect class="cls-78" x="132.71" y="1086.9" width="12.59" height="3.06"/>
      <rect class="cls-78" x="6.84" y="1086.9" width="12.59" height="3.06"/>
      <rect class="cls-78" x="192.72" y="999.21" width="12.59" height="3.06"/>
      <polygon class="cls-78" points="19.6 1008.35 22.05 1010.13 27.63 1002.26 29.1 1002.26 29.1 999.21 26.08 999.21 19.6 1008.35"/>
      <rect class="cls-78" x="57.19" y="1086.9" width="12.59" height="3.06"/>
      <rect class="cls-78" x="41.68" y="999.21" width="12.59" height="3.06"/>
      <rect class="cls-78" x="32.02" y="1086.9" width="12.59" height="3.06"/>
      <polygon class="cls-78" points="-9.74 1049.74 -7.28 1051.53 .05 1041.18 -2.4 1039.4 -9.74 1049.74"/>
      <polygon class="cls-78" points="1076.01 1022.33 1076.01 1020.03 1069.35 1011.43 1066.98 1013.32 1074.73 1023.34 1076.01 1022.33"/>
      <polygon class="cls-78" points="14.72 1020.48 12.26 1018.7 4.93 1029.05 7.39 1030.83 14.72 1020.48"/>
      <rect class="cls-78" x="157.88" y="1086.9" width="12.59" height="3.06"/>
      <rect class="cls-78" x="66.86" y="999.21" width="12.59" height="3.06"/>
      <rect class="cls-78" x="142.37" y="999.21" width="12.59" height="3.06"/>
      <rect class="cls-78" x="167.55" y="999.21" width="12.59" height="3.06"/>
      <rect class="cls-78" x="183.05" y="1086.9" width="12.59" height="3.06"/>
      <rect class="cls-78" x="485.13" y="1086.9" width="12.59" height="3.06"/>
      <rect class="cls-78" x="92.03" y="999.21" width="12.59" height="3.06"/>
      <rect class="cls-78" x="82.36" y="1086.9" width="12.59" height="3.06"/>
      <rect class="cls-78" x="107.54" y="1086.9" width="12.59" height="3.06"/>
      <rect class="cls-78" x="117.2" y="999.21" width="12.59" height="3.06"/>
      <rect class="cls-78" x="847.21" y="999.21" width="12.59" height="3.06"/>
      <rect class="cls-78" x="897.56" y="999.21" width="12.59" height="3.06"/>
      <rect class="cls-78" x="872.39" y="999.21" width="12.59" height="3.06"/>
      <rect class="cls-78" x="887.89" y="1086.9" width="12.59" height="3.06"/>
      <rect class="cls-78" x="913.07" y="1086.9" width="12.59" height="3.06"/>
      <rect class="cls-78" x="922.73" y="999.21" width="12.59" height="3.06"/>
      <rect class="cls-78" x="862.72" y="1086.9" width="12.59" height="3.06"/>
      <rect class="cls-78" x="812.37" y="1086.9" width="12.59" height="3.06"/>
      <rect class="cls-78" x="796.87" y="999.21" width="12.59" height="3.06"/>
      <rect class="cls-78" x="938.24" y="1086.9" width="12.59" height="3.06"/>
      <rect class="cls-78" x="822.04" y="999.21" width="12.59" height="3.06"/>
      <rect class="cls-78" x="837.55" y="1086.9" width="12.59" height="3.06"/>
      <rect class="cls-78" x="1023.42" y="999.21" width="12.59" height="3.06"/>
      <rect class="cls-78" x="1013.76" y="1086.9" width="12.59" height="3.06"/>
      <rect class="cls-78" x="787.2" y="1086.9" width="12.59" height="3.06"/>
      <rect class="cls-78" x="1038.93" y="1086.9" width="12.59" height="3.06"/>
      <polygon class="cls-78" points="1048.6 999.21 1048.6 1002.26 1058.42 1002.26 1059.21 1003.29 1061.59 1001.41 1059.89 999.21 1048.6 999.21"/>
      <rect class="cls-78" x="1064.1" y="1086.9" width="11.91" height="3.06"/>
      <rect class="cls-78" x="973.08" y="999.21" width="12.59" height="3.06"/>
      <rect class="cls-78" x="998.25" y="999.21" width="12.59" height="3.06"/>
      <rect class="cls-78" x="947.9" y="999.21" width="12.59" height="3.06"/>
      <rect class="cls-78" x="963.41" y="1086.9" width="12.59" height="3.06"/>
      <rect class="cls-78" x="988.58" y="1086.9" width="12.59" height="3.06"/>
      <rect class="cls-78" x="636.16" y="1086.9" width="12.59" height="3.06"/>
      <rect class="cls-78" x="595.48" y="999.21" width="12.59" height="3.06"/>
      <rect class="cls-78" x="585.82" y="1086.9" width="12.59" height="3.06"/>
      <rect class="cls-78" x="494.79" y="999.21" width="12.59" height="3.06"/>
      <rect class="cls-78" x="620.66" y="999.21" width="12.59" height="3.06"/>
      <rect class="cls-78" x="610.99" y="1086.9" width="12.59" height="3.06"/>
      <rect class="cls-78" x="570.31" y="999.21" width="12.59" height="3.06"/>
      <rect class="cls-78" x="510.3" y="1086.9" width="12.59" height="3.06"/>
      <rect class="cls-78" x="519.97" y="999.21" width="12.59" height="3.06"/>
      <rect class="cls-78" x="535.47" y="1086.9" width="12.59" height="3.06"/>
      <rect class="cls-78" x="545.14" y="999.21" width="12.59" height="3.06"/>
      <rect class="cls-78" x="560.65" y="1086.9" width="12.59" height="3.06"/>
      <rect class="cls-78" x="746.52" y="999.21" width="12.59" height="3.06"/>
      <rect class="cls-78" x="736.86" y="1086.9" width="12.59" height="3.06"/>
      <rect class="cls-78" x="645.83" y="999.21" width="12.59" height="3.06"/>
      <rect class="cls-78" x="762.03" y="1086.9" width="12.59" height="3.06"/>
      <rect class="cls-78" x="711.68" y="1086.9" width="12.59" height="3.06"/>
      <rect class="cls-78" x="771.69" y="999.21" width="12.59" height="3.06"/>
      <rect class="cls-78" x="721.35" y="999.21" width="12.59" height="3.06"/>
      <rect class="cls-78" x="671" y="999.21" width="12.59" height="3.06"/>
      <rect class="cls-78" x="661.34" y="1086.9" width="12.59" height="3.06"/>
      <rect class="cls-78" x="686.51" y="1086.9" width="12.59" height="3.06"/>
      <rect class="cls-78" x="696.18" y="999.21" width="12.59" height="3.06"/>
    </g>
    <g>
      <rect class="cls-81" x="171.12" y="385.81" width="12.96" height="122.33" rx="2.54" ry="2.54"/>
      <path class="cls-77" d="M177.6,509.66c-4.41,0-8.01-3.59-8.01-8.01v-109.37c0-4.41,3.59-8.01,8.01-8.01s8.01,3.59,8.01,8.01v109.37c0,4.41-3.59,8.01-8.01,8.01ZM177.6,387.33c-2.73,0-4.95,2.22-4.95,4.95v109.37c0,2.73,2.22,4.95,4.95,4.95s4.95-2.22,4.95-4.95v-109.37c0-2.73-2.22-4.95-4.95-4.95Z"/>
    </g>
    <g>
      <rect class="cls-81" x="392.86" y="385.85" width="12.96" height="122.33" rx="2.54" ry="2.54"/>
      <path class="cls-77" d="M399.33,509.71c-4.41,0-8.01-3.59-8.01-8.01v-109.37c0-4.41,3.59-8.01,8.01-8.01s8.01,3.59,8.01,8.01v109.37c0,4.41-3.59,8.01-8.01,8.01ZM399.33,387.38c-2.73,0-4.95,2.22-4.95,4.95v109.37c0,2.73,2.22,4.95,4.95,4.95s4.95-2.22,4.95-4.95v-109.37c0-2.73-2.22-4.95-4.95-4.95Z"/>
    </g>
    <path class="cls-78" d="M894.08,657.87c-13.71,0-24.45-25.09-24.45-57.13s10.74-57.13,24.45-57.13,24.45,25.09,24.45,57.13-10.74,57.13-24.45,57.13ZM894.08,546.67c-11.6,0-21.39,24.76-21.39,54.07s9.8,54.07,21.39,54.07,21.39-24.76,21.39-54.07-9.8-54.07-21.39-54.07Z"/>
    <path class="cls-78" d="M673.27,655.47c-13.71,0-24.45-25.09-24.45-57.13s10.74-57.13,24.45-57.13,24.45,25.09,24.45,57.13-10.74,57.13-24.45,57.13ZM673.27,544.26c-11.6,0-21.39,24.76-21.39,54.07s9.8,54.07,21.39,54.07,21.39-24.76,21.39-54.07-9.8-54.07-21.39-54.07Z"/>
    <rect class="cls-77" x="-.79" y="1089.6" width="1081.52" height="260.29"/>
    <rect class="cls-78" x="607.67" y="725.65" width="49.93" height="3.06"/>
    <g>
      <line class="cls-77" x1="899.43" y1="731.81" x2="947.95" y2="745.12"/>
      <rect class="cls-78" x="922.16" y="713.31" width="3.06" height="50.31" transform="translate(-32.8 1433.91) rotate(-74.66)"/>
    </g>
    <g>
      <line class="cls-77" x1="941.65" y1="787.18" x2="892.04" y2="777.17"/>
      <rect class="cls-78" x="915.32" y="756.87" width="3.06" height="50.61" transform="translate(-31.24 1526.16) rotate(-78.59)"/>
    </g>
    <g>
      <rect class="cls-77" x="93.46" y="866.45" width="255.53" height="188.1"/>
      <path class="cls-78" d="M348.99,1056.08h-12.73v-3.06h12.73v3.06ZM323.52,1056.08h-12.73v-3.06h12.73v3.06ZM298.05,1056.08h-12.73v-3.06h12.73v3.06ZM272.59,1056.08h-12.73v-3.06h12.73v3.06ZM247.12,1056.08h-12.73v-3.06h12.73v3.06ZM221.65,1056.08h-12.73v-3.06h12.73v3.06ZM196.18,1056.08h-12.73v-3.06h12.73v3.06ZM170.71,1056.08h-12.73v-3.06h12.73v3.06ZM145.25,1056.08h-12.73v-3.06h12.73v3.06ZM119.78,1056.08h-12.73v-3.06h12.73v3.06ZM94.31,1056.08h-2.38v-13.41h3.06v11.88h-.67v1.53ZM350.52,1045.92h-3.06v-12.73h3.06v12.73ZM94.99,1029.94h-3.06v-12.73h3.06v12.73ZM350.52,1020.45h-3.06v-12.73h3.06v12.73ZM94.99,1004.47h-3.06v-12.73h3.06v12.73ZM350.52,994.99h-3.06v-12.73h3.06v12.73ZM94.99,979h-3.06v-12.73h3.06v12.73ZM350.52,969.52h-3.06v-12.73h3.06v12.73ZM94.99,953.53h-3.06v-12.73h3.06v12.73ZM350.52,944.05h-3.06v-12.73h3.06v12.73ZM94.99,928.06h-3.06v-12.73h3.06v12.73ZM350.52,918.58h-3.06v-12.73h3.06v12.73ZM94.99,902.6h-3.06v-12.73h3.06v12.73ZM350.52,893.11h-3.06v-12.73h3.06v12.73ZM94.99,877.13h-3.06v-12.21h3.58v3.06h-.52v9.15ZM348.99,867.98h-11.54v-3.06h13.06v2.73h-1.53v.33ZM324.72,867.98h-12.73v-3.06h12.73v3.06ZM299.25,867.98h-12.73v-3.06h12.73v3.06ZM273.79,867.98h-12.73v-3.06h12.73v3.06ZM248.32,867.98h-12.73v-3.06h12.73v3.06ZM222.85,867.98h-12.73v-3.06h12.73v3.06ZM197.38,867.98h-12.73v-3.06h12.73v3.06ZM171.91,867.98h-12.73v-3.06h12.73v3.06ZM146.45,867.98h-12.73v-3.06h12.73v3.06ZM120.98,867.98h-12.73v-3.06h12.73v3.06Z"/>
    </g>
    <g>
      <polygon class="cls-77" points="348.99 1054.55 391.27 1025.2 348.99 1025.2 348.99 1054.55"/>
      <path class="cls-78" d="M349.86,1055.8l-1.74-2.51,10.46-7.26,1.74,2.51-10.46,7.26ZM350.52,1046.05h-3.06v-12.73h3.06v12.73ZM370.78,1041.28l-1.74-2.51,10.46-7.26,1.74,2.51-10.46,7.26ZM391.7,1026.76l-.43-.62v.59h-12.2v-3.06h17.09l-4.46,3.09ZM366.34,1026.73h-12.73v-3.06h12.73v3.06Z"/>
    </g>
    <path class="cls-78" d="M950.98,1050.37h-13.28v-2.55h8l1.42-1.39,3.86,3.94ZM924.97,1050.37h-12.73v-2.55h12.73v2.55ZM899.5,1050.37h-12.73v-2.55h12.73v2.55ZM874.03,1050.37h-12.73v-2.55h12.73v2.55ZM848.57,1050.37h-12.73v-2.55h12.73v2.55ZM823.1,1050.37h-12.73v-2.55h12.73v2.55ZM797.63,1050.37h-12.73v-2.55h12.73v2.55ZM772.16,1050.37h-12.73v-2.55h12.73v2.55ZM746.69,1050.37h-12.73v-2.55h12.73v2.55ZM721.23,1050.37h-12.73v-2.55h12.73v2.55ZM695.76,1050.37h-10.51l-.99-4.12,2.48-.59.52,2.17h8.5v2.55ZM936.39,1039.12l-8.91-9.09,1.82-1.78,8.91,9.09-1.82,1.78ZM681.29,1033.87l-2.97-12.38,2.48-.59,2.97,12.38-2.48.59ZM918.56,1020.94l-2.25-2.29h-8.45v-2.55h9.52l3,3.06-1.82,1.78ZM895.12,1018.65h-12.73v-2.55h12.73v2.55ZM869.65,1018.65h-12.73v-2.55h12.73v2.55ZM844.19,1018.65h-12.73v-2.55h12.73v2.55ZM818.72,1018.65h-12.73v-2.55h12.73v2.55ZM793.25,1018.65h-12.73v-2.55h12.73v2.55ZM767.78,1018.65h-12.73v-2.55h12.73v2.55ZM742.32,1018.65h-12.73v-2.55h12.73v2.55ZM716.85,1018.65h-12.73v-2.55h12.73v2.55ZM691.38,1018.65h-12.73v-2.55h12.73v2.55Z"/>
    <path class="cls-78" d="M938.45,1063.45h-12.73v-2.55h12.73v2.55ZM912.98,1063.45h-12.73v-2.55h12.73v2.55ZM887.51,1063.45h-12.73v-2.55h12.73v2.55ZM862.05,1063.45h-12.73v-2.55h12.73v2.55ZM836.58,1063.45h-12.73v-2.55h12.73v2.55ZM811.11,1063.45h-12.73v-2.55h12.73v2.55ZM785.64,1063.45h-12.73v-2.55h12.73v2.55ZM760.17,1063.45h-12.73v-2.55h12.73v2.55ZM734.71,1063.45h-12.73v-2.55h12.73v2.55ZM709.24,1063.45h-12.73v-2.55h12.73v2.55ZM952.12,1061.83h-2.55v-12.73h2.55v12.73ZM683.54,1061.23l-4.52-11.9,2.38-.91,4.52,11.9-2.38.91ZM685.02,1049.4l-.27-1.13,2.48-.59.27,1.13-2.48.59ZM678.31,1036.88l-2.54-.21,1.05-12.69,2.14.18-.16-.66,2.48-.59,2.97,12.38-2.48.59-2.51-10.48-.95,11.49Z"/>
  </g>
  <text class="cls-79" transform="translate(57.19 1293.73)"><tspan class="cls-80" x="0" y="0">P</tspan><tspan class="cls-76" x="19.81" y="0">R</tspan><tspan class="cls-80" x="41.57" y="0">OGRAMA</tspan></text>
  <polygon class="cls-78" points="311.39 1278.11 285.54 1263.19 285.54 1293.04 311.39 1278.11"/>
</svg>